<?xml version="1.0" encoding="utf-8"?>
<!-- Generator: Adobe Illustrator 25.3.0, SVG Export Plug-In . SVG Version: 6.00 Build 0)  -->
<svg version="1.1" id="Layer_1" xmlns="http://www.w3.org/2000/svg" xmlns:xlink="http://www.w3.org/1999/xlink" x="0px" y="0px"
	 viewBox="0 0 977.2 53.8" style="enable-background:new 0 0 977.2 53.8;" xml:space="preserve">
<style type="text/css">
	.st0{fill:#FFFFFF;}
	.st1{fill:#0099CC;}
</style>
<g>
	<g>
		<path class="st0" d="M51.2,0.8h32.3v3.3H69.3v37.4h-3.9V4.2H51.2V0.8z"/>
		<path class="st0" d="M87.3,0.8h3.9v17.7h24.2V0.8h3.9v40.7h-3.9V21.8H91.2v19.7h-3.9C87.3,41.5,87.3,0.8,87.3,0.8z"/>
		<path class="st0" d="M127.5,0.8h28.1v3.3h-24.2v14.7h22.7v3.3h-22.7v16.1h24.5v3.3h-28.4C127.5,41.5,127.5,0.8,127.5,0.8z"/>
	</g>
	<g>
		<polygon class="st0" points="8.2,33.4 8.2,17.1 0,17.1 0,41.6 24.4,41.6 24.4,33.4 		"/>
		<polygon class="st0" points="40.7,0.8 0,0.8 0,13.1 8.1,13.1 8.1,9 32.6,9 32.6,33.4 28.5,33.4 28.5,41.6 40.7,41.6 		"/>
	</g>
	<g>
		<path class="st0" d="M371,0.9h25.8v3.3h-22v14.7h19.5v3.3h-19.5v19.4H371V0.9z"/>
		<path class="st0" d="M418.6,0c12.8,0,19.2,10,19.2,21.2s-6.4,21.2-19.2,21.2c-12.8,0-19.2-10-19.2-21.2S405.8,0,418.6,0z
			 M418.6,39.1c10.7,0,15.3-9,15.3-17.9s-4.6-17.9-15.3-17.9c-10.8,0-15.3,9-15.3,17.9C403.3,30.1,407.8,39.1,418.6,39.1z"/>
		<path class="st0" d="M443.4,0.9h3.9v25.2c0,9.4,4.4,13.1,11.9,13.1c7.6,0,12-3.6,12-13.1V0.9h3.9V27c0,8.4-4.5,15.5-15.9,15.5
			c-11.2,0-15.8-7.1-15.8-15.5V0.9z"/>
		<path class="st0" d="M482.8,0.9h4.3l23.7,34.4h0.1V0.9h3.9v40.7h-4.3L486.8,7.1h-0.1v34.4h-3.9V0.9z"/>
		<path class="st0" d="M523,0.9h14.1c12.3,0.3,18.7,6.9,18.7,20.4s-6.4,20.1-18.7,20.4H523V0.9z M526.9,38.3h8.3
			c11.7,0,16.8-4.8,16.8-17s-5.1-17-16.8-17h-8.3V38.3z"/>
		<path class="st0" d="M574,0.9h4.3l16,40.7h-4.2l-5-12.7h-18.5l-4.9,12.7h-4.2L574,0.9z M567.9,25.6h16L576,4.7L567.9,25.6z"/>
		<path class="st0" d="M589.8,0.9H622v3.3h-14.2v37.4H604V4.2h-14.2V0.9z"/>
		<path class="st0" d="M626.2,0.9h3.9v40.7h-3.9V0.9z"/>
		<path class="st0" d="M655.6,0c12.8,0,19.2,10,19.2,21.2s-6.4,21.2-19.2,21.2s-19.2-10-19.2-21.2C636.4,10,642.7,0,655.6,0z
			 M655.6,39.1c10.7,0,15.3-9,15.3-17.9s-4.6-17.9-15.3-17.9c-10.8,0-15.3,9-15.3,17.9C640.2,30.1,644.8,39.1,655.6,39.1z"/>
		<path class="st0" d="M680.7,0.9h4.3l23.7,34.4h0.1V0.9h3.9v40.7h-4.3L684.7,7.1h-0.1v34.4h-3.9V0.9z"/>
	</g>
	<g>
		<path class="st0" d="M166.6,0.8h12.5V31H197v10.4h-30.4V0.8z"/>
		<path class="st0" d="M205.2,0.8h12.5v40.5h-12.5V0.8z"/>
		<path class="st0" d="M227,0.8h12.8l11.8,21.7h0.1V0.8h11.8v40.5h-12.1L239,19.2h-0.1v22.1H227V0.8z"/>
		<path class="st0" d="M309.7,25.7c0,11.3-6,16.6-18.5,16.6s-18.5-5.3-18.5-16.6V0.8h12.5v22.1c0,4.1-0.1,9.3,6.1,9.3
			c5.9,0,5.9-5.2,5.9-9.3V0.8h12.5V25.7z"/>
		<path class="st0" d="M329.5,19.8l-13.3-19h14.6l6.1,11l6-11h13.9l-13,19.1l14.5,21.5h-15l-6.9-12.1l-7.2,12.1h-14.3L329.5,19.8z"
			/>
	</g>
	<g>
		<path class="st1" d="M726.5,1.4h11.2c4.3,0,7.6,1,9.8,2.9c2.3,1.9,3.4,4.5,3.4,7.9s-1.1,6-3.4,8c-2.3,2-5.7,2.9-10.1,2.9h-7.8v19
			h-3.1L726.5,1.4L726.5,1.4z M729.7,4v16.4h7.6c3.4,0,6-0.7,7.7-2.2c1.8-1.4,2.6-3.5,2.6-6.1c0-2.5-0.9-4.5-2.6-6
			c-1.7-1.5-4.2-2.2-7.4-2.2h-7.9V4z"/>
		<path class="st1" d="M756.9,1.4h10.4c4.4,0,7.7,0.9,10,2.8s3.5,4.4,3.5,7.7c0,4.7-2.6,8-7.7,9.9c1.3,0.6,3.1,2.7,5.4,6.2l9.2,14
			H784l-7.1-11.1c-2.4-3.7-4.2-6-5.5-7c-1.3-0.9-3.2-1.4-5.8-1.4h-5.5V42H757V1.4H756.9z M760.1,4v15.9h6.7c3.4,0,6.1-0.7,7.9-2.1
			c1.8-1.4,2.7-3.3,2.7-5.9c0-2.5-0.9-4.4-2.8-5.8S770.2,4,766.7,4H760.1z"/>
		<path class="st1" d="M808.8,0.9c6,0,11.1,2,15.3,6.1c4.2,4,6.3,9,6.3,14.8s-2.1,10.7-6.3,14.8s-9.3,6.1-15.3,6.1s-11.1-2-15.2-6.1
			c-4.2-4-6.2-9-6.2-14.8s2.1-10.7,6.2-14.8S802.8,0.9,808.8,0.9z M808.9,39.6c5.1,0,9.3-1.7,12.8-5.2s5.2-7.7,5.2-12.7
			s-1.7-9.3-5.2-12.7c-3.5-3.5-7.7-5.2-12.8-5.2S799.5,5.5,796,9s-5.3,7.7-5.3,12.7s1.8,9.3,5.3,12.7
			C799.5,37.9,803.8,39.6,808.9,39.6z"/>
		<path class="st1" d="M841.3,1.4V42c0,4.5-0.8,7.6-2.5,9.3s-3.7,2.6-6,2.6c-0.5,0-1.2,0-1.9-0.1l-0.3-3c0.7,0.2,1.3,0.2,1.9,0.2
			c3.8,0,5.7-2.7,5.7-8.1V1.4H841.3z"/>
		<path class="st1" d="M872.6,1.4V4h-19v16.3h18.5v2.6h-18.5v16.5h19.5V42h-22.6V1.4H872.6z"/>
		<path class="st1" d="M914.6,4.3v3.4c-4.9-2.6-9.8-3.9-14.5-3.9c-5,0-9.3,1.7-12.6,5.1c-3.4,3.4-5.1,7.7-5.1,12.9s1.7,9.5,5.1,12.8
			c3.4,3.4,7.8,5,13.1,5c4.4,0,9.2-1.4,14.5-4.2v3.3c-4.8,2.5-9.6,3.8-14.4,3.8c-6.2,0-11.3-2-15.5-5.9c-4.1-4-6.2-8.9-6.2-14.8
			c0-6,2.1-10.9,6.3-14.9s9.2-6,15-6C904.9,0.9,909.7,2,914.6,4.3z"/>
		<path class="st1" d="M951.4,1.4V4h-15.2v38H933V4h-15.2V1.4H951.4z"/>
		<path class="st1" d="M975.5,3.4v3.5c-3.5-2.1-6.6-3.1-9.1-3.1c-2.4,0-4.5,0.7-6.1,2.2s-2.5,3.3-2.5,5.5c0,1.6,0.5,3,1.5,4.2
			c1,1.3,3,2.5,6.1,3.6c3.1,1.2,5.3,2.1,6.7,2.9s2.6,1.9,3.6,3.4s1.5,3.4,1.5,5.7c0,3.1-1.1,5.8-3.4,7.9c-2.3,2.2-5.1,3.2-8.4,3.2
			c-3.4,0-6.8-1.2-10.4-3.5v-3.7c3.9,2.9,7.3,4.3,10.2,4.3c2.4,0,4.4-0.8,6.1-2.3c1.7-1.6,2.5-3.5,2.5-5.7c0-1.7-0.5-3.3-1.5-4.7
			c-1-1.4-3.1-2.7-6.2-3.9c-3.1-1.2-5.4-2.2-6.7-2.9c-1.3-0.7-2.5-1.8-3.4-3.2c-0.9-1.4-1.4-3.1-1.4-5.3c0-3,1.1-5.5,3.4-7.6
			c2.3-2.1,5-3.2,8.3-3.2C969.3,0.9,972.4,1.7,975.5,3.4z"/>
	</g>
</g>
</svg>
