<?xml version="1.0" encoding="utf-8"?>
<!-- Generator: Adobe Illustrator 22.1.0, SVG Export Plug-In . SVG Version: 6.00 Build 0)  -->
<svg version="1.1" id="Layer_1" xmlns="http://www.w3.org/2000/svg" xmlns:xlink="http://www.w3.org/1999/xlink" x="0px" y="0px"
	 viewBox="0 0 167.4 164.9" style="enable-background:new 0 0 167.4 164.9;" xml:space="preserve">
<style type="text/css">
	.st0{fill:#EB008B;}
	.st1{clip-path:url(#SVGID_2_);fill:none;stroke:#FFFFFF;stroke-width:8.3395;stroke-miterlimit:10;}
	.st2{clip-path:url(#SVGID_4_);fill:none;stroke:#FFFFFF;stroke-width:9;stroke-miterlimit:10;}
	.st3{clip-path:url(#SVGID_4_);fill:#231F20;}
	.st4{clip-path:url(#SVGID_6_);fill:none;stroke:#FFFFFF;stroke-width:9;stroke-miterlimit:10;}
	.st5{clip-path:url(#SVGID_6_);fill:none;stroke:#FFFFFF;stroke-width:8.8;stroke-miterlimit:10;}
	.st6{clip-path:url(#SVGID_6_);fill:#231F20;}
	.st7{fill:none;stroke:#FFFFFF;stroke-width:9;stroke-miterlimit:10;}
	.st8{fill:none;}
	.st9{fill:#FFFFFF;}
	.st10{fill:#231F20;}
	.st11{fill:#5500A6;}
	.st12{fill:#25A9E0;}
	.st13{opacity:0.4;fill:#231F20;}
	.st14{fill:none;stroke:#D0D2D3;stroke-width:0.5243;stroke-miterlimit:10;}
	.st15{fill:none;stroke:#D0D2D3;stroke-width:0.5;stroke-miterlimit:10;}
	.st16{fill:none;stroke:#D0D2D3;stroke-width:0.5289;stroke-miterlimit:10;}
	.st17{fill:#EC1C24;}
</style>
<g>
	<path class="st9" d="M20.8,125.8c1.4,2,2.8,3.9,4.4,5.8c4.4-0.8,8.7-3.5,11.9-7.6c2.2-2.7,3.5-7.2,3.9-12.9c0.2-2.7,0.1-15.1,0-26
		c-0.1-9.6-0.1-17.9,0-20c0.4-6.7,5.6-11.8,12-11.8h0.3c6.4,0,11.6,5.1,12,11.8c0.1,2,0.1,9.4,0,18c-0.1,9.7-0.2,20.6,0,23.4
		c0.4,5.3,1.7,9.3,3.9,12.1c3.6,4.5,8.9,7.1,14.7,7.1h1c5.8,0,11.1-2.6,14.7-7.1c2.3-2.8,3.6-6.8,3.9-12.1c0.2-2.7,0.1-9.6,0-15.8
		c-0.1-5.5-0.1-10.3,0-12.4c0.4-6.7,5.6-11.8,12-11.8h0.3c6.4,0,11.6,5.1,12,11.8c0.1,2,0.1,7.9,0,14.7c-0.1,7.6-0.2,16.2,0,18.9
		c0.4,5.3,1.7,9.3,3.9,12.1c3,3.7,6.8,6.3,10.8,7.4c1.5-1.8,2.9-3.7,4.3-5.6c-7.9-1.2-12-7.5-12.6-13.9c-0.2-2.9-0.1-9.9,0-17.3
		c0.1-6.7,0.2-13.7,0-15.9c-0.5-5.8-1.9-9.5-4.6-12.5c-3.6-4.1-8.6-6.3-14-6.3h-0.1c-5.4,0-10.4,2.2-14,6.3
		c-2.7,3.1-4.1,6.7-4.6,12.5c-0.2,2.2-0.1,8,0,13.6c0.1,6.2,0.2,12.1,0,15c-0.6,6.7-5.7,11.7-12,11.7h-0.8c-6.3,0-11.5-5-12-11.7
		c-0.2-2.8-0.1-12,0-21.6c0.1-8.4,0.2-17.9,0-20.1c-0.5-5.8-1.9-9.5-4.6-12.5c-3.6-4.1-8.6-6.3-14-6.3h-0.9c-5.4,0-10.4,2.2-14,6.3
		c-2.7,3.1-4.1,6.7-4.6,12.5c-0.2,2.2-0.1,13,0,22.5c0.1,10.9,0.2,21.1,0,24C33.5,118.4,29.2,125,20.8,125.8z"/>
	<path class="st9" d="M83.8,5.9L83.8,5.9C41.6,5.9,7.3,40.2,7.3,82.5v0c0,13.7,3.6,26.5,9.9,37.6c1.3-0.2,3.8-0.7,5.9-2
		c3.3-1.7,3.9-5.4,4.1-6.8c0.2-2.5,0.1-13.6,0-23.3c-0.1-12.8-0.2-20.8,0-23.2c0.5-5.2,1.6-11.2,6.3-16.5c4.9-5.6,11.8-8.6,19.2-8.6
		h0.8c7.5,0,14.3,3.1,19.2,8.6c4.7,5.3,5.9,11.4,6.3,16.5c0.2,2.4,0.2,9.5,0,20.9c-0.1,8.7-0.2,18.5,0,21c0.2,2.7,2.1,5.4,5.1,5.4
		H85c3.1,0,4.9-2.7,5.1-5.4c0.2-2.5,0.1-8.5,0-14.3c-0.1-6.1-0.2-11.8,0-14.4c0.5-5.2,1.6-11.2,6.3-16.5c4.9-5.6,11.8-8.6,19.2-8.6
		h0.1c7.4,0,14.3,3.1,19.2,8.6c4.7,5.3,5.9,11.4,6.3,16.5c0.2,2.6,0.1,9.4,0,16.7c-0.1,6.6-0.2,14.1,0,16.6c0.1,0.9,0.4,2.7,1.4,4.3
		c0,0,0,0,0,0.1c0.1,0.1,0.1,0.2,0.2,0.3c2.1,3,5.9,3.9,7.6,4.1c6.3-11.1,9.9-23.9,9.9-37.6v0C160.4,40.2,126.1,5.9,83.8,5.9z"/>
	<path class="st9" d="M126.4,128.3c-3.2-4-4.9-9.2-5.4-15.9c-0.2-3-0.1-11.4,0-19.5c0.1-6.1,0.1-12.4,0-14.2
		c-0.2-3.1-2.3-5.3-5.1-5.3h-0.3c-2.8,0-4.9,2.2-5.1,5.3c-0.1,1.8,0,6.9,0,11.8c0.1,6.6,0.2,13.4,0,16.4c-0.5,6.7-2.3,12-5.4,15.9
		c-4.9,6.2-12.3,9.7-20.1,9.7h-1c-7.9,0-15.2-3.6-20.1-9.7c-3.2-4-4.9-9.2-5.4-15.9c-0.2-3-0.1-13.6,0-23.9c0.1-7.7,0.1-15.7,0-17.5
		c-0.2-3.1-2.3-5.3-5.1-5.3h-0.3c-2.8,0-4.9,2.2-5.1,5.3c-0.1,1.8,0,10.8,0,19.5c0.1,11.6,0.2,23.6,0,26.6
		c-0.5,7.2-2.4,12.8-5.4,16.7c-3.4,4.2-7.5,7.3-12.1,9C44.3,150.7,63.1,159,83.8,159h0c20.9,0,39.9-8.4,53.7-22
		C133.4,135.2,129.6,132.3,126.4,128.3z"/>
</g>
</svg>
