<?xml version="1.0" encoding="utf-8"?>
<!-- Generator: Adobe Illustrator 24.2.0, SVG Export Plug-In . SVG Version: 6.00 Build 0)  -->
<svg version="1.1" id="Layer_1" xmlns="http://www.w3.org/2000/svg" xmlns:xlink="http://www.w3.org/1999/xlink" x="0px" y="0px"
	 viewBox="0 0 777.7 250" style="enable-background:new 0 0 777.7 250;" xml:space="preserve">
<style type="text/css">
	.st0{fill:#FFFFFF;}
</style>
<path class="st0" d="M279.4,127.6c0-11,0.2-22-0.1-33c-0.1-4.1,1.5-5.3,5.3-5.1c2.7,0.2,5.3,0.1,8,0c3.6-0.1,6.9-0.6,6.9,5
	c0,3.1,2.4,1.5,3.7,0.2c5.1-5,11.3-7.5,18.5-7.4c7.4,0.1,13.7,2.5,18.1,8.8c1.8,2.6,3,3.1,5.6,0.4c9-9.3,21.2-11.8,32.9-6.7
	c8.3,3.6,12.4,10.8,12.7,19.4c0.5,17.5,0.3,35,0.4,52.5c0,3-1.3,4.2-4.2,4.1c-3-0.1-6,0-9,0c-6.5,0-6.5,0-6.5-6.7
	c0-13.3,0.2-26.7-0.1-40c-0.1-5.1-0.5-10.5-6.2-13.2c-8.5-4-17.9,1.3-19.3,10.9c-1.2,8-0.6,16-0.7,23.9c-0.1,6.8-0.1,13.7,0,20.5
	c0.1,3.4-1.1,4.9-4.7,4.7c-3.5-0.2-7-0.2-10.5,0c-3.8,0.3-4.9-1.4-4.9-5c0.1-14,0.1-28,0-42c0-5-0.5-10.2-5.8-12.9
	c-7.5-3.8-16.6,0.3-18.9,8.7c-0.9,3.2-1.5,6.5-1.5,9.8c0.1,12-0.1,24,0.1,36c0.1,4.2-1.3,5.4-5.4,5.3c-14.4-0.1-14.4,0-14.4-14.3
	C279.4,143.6,279.4,135.6,279.4,127.6z"/>
<path class="st0" d="M578.3,127.4c0-11.2,0.1-22.3-0.1-33.5c0-3.1,0.8-4.6,4.2-4.3c2.8,0.3,5.7,0.2,8.5,0c4-0.2,7.5-0.6,7.2,5.6
	c-0.2,3.2,2.2,0.9,3.2,0c4.8-4.7,10.5-7.6,17.3-7.8c8.3-0.3,15.4,1.9,20.2,9.4c1.3,2.1,2.6,2.5,4.6,0.3c9.3-10,20.6-12.2,33.2-7.3
	c6.8,2.6,10.8,8.1,12.2,15.3c2.2,10.9,0.9,21.9,1.2,32.9c0.2,7.7-0.1,15.3,0.1,23c0.1,3.6-1.2,5.2-5,4.9c-3.1-0.2-6.3-0.3-9.5,0
	c-4.3,0.4-5.9-1.2-5.8-5.6c0.2-14.2,0.1-28.3,0.1-42.5c0-5-0.8-9.7-6.2-12c-7.3-3.1-15.6,0.5-18.3,7.9c-1.2,3.5-1.6,7.1-1.6,10.8
	c0,12-0.1,24,0.1,36c0.1,4.1-1.1,5.9-5.4,5.4c-3.1-0.3-6.3-0.3-9.5,0c-4.1,0.4-5.1-1.5-5.1-5.3c0.2-13.5,0.1-27,0.1-40.5
	c0-10.2-3.9-15.6-11.3-15.8c-7.3-0.3-14.4,6.8-14.7,15.4c-0.4,11.1-0.1,22.3-0.1,33.5c0,12.6,0,12.6-12.6,12.6c-7.1,0-7.1,0-7.1-7
	C578.4,148.4,578.3,137.9,578.3,127.4z"/>
<path class="st0" d="M561.9,131c-0.4,10.8,0.8,24-0.6,37.1c-1.7,16-12.4,26.7-28.3,29.8c-12.5,2.4-24.2,1.1-35.1-5.4
	c-8.5-5.1-12.2-14.7-10.3-24.1c0.7-3.4,2.1-5.3,5.9-3.3c1.2,0.6,2.6,0.7,3.8,1.2c4.6,1.9,11.6,1.1,9.9,9.7c-0.3,1.7,1.5,3.6,3.4,4.6
	c6.7,3.7,14,3.7,20.8,1.6c7.9-2.4,10.2-9.5,10.7-17c0.2-2.9,1.6-6.9-0.7-8.5c-2-1.3-4,2.6-6.1,4c-10.2,6.5-27.4,4.6-37.7-4.4
	c-12.6-11-15.9-25.4-12.1-40.8c3.8-15.3,14.6-24.7,30.3-27.6c8-1.5,15.5,0.2,22.1,5.4c2.1,1.7,4.1,3,4.4-1.3
	c0.2-2.4,1.9-2.3,3.6-2.3c3.8,0,7.7,0.2,11.5-0.1c3.7-0.3,4.5,1.4,4.5,4.7C561.9,105.7,561.9,117.2,561.9,131z M543.1,126.4
	c0.4-15.1-9.4-21.5-20.5-22c-11.1-0.5-19.6,9-19.8,21.3c-0.2,12.5,8,21.4,19.8,21.5C534.9,147.3,543.1,139,543.1,126.4z"/>
<path class="st0" d="M769.8,134c0,5.2,0,10.3,0,15.5c0,4.2,0.2,8.3,2.4,12.1c1.9,3.3,0.9,4.7-3,4.4c-3.1-0.3-6.4-0.4-9.5,0
	c-5.1,0.7-7.6-1.9-8.5-6.2c-0.9-4.4-2.1-3.4-4.5-1.1c-10.4,10.3-25.6,12.2-37,4.8c-7.9-5.1-11.1-12.9-10.3-21.9
	c1-11.2,8.4-17.6,18.6-21c8.1-2.7,16.6-3,24.9-4.6c2.1-0.4,5.2,0.6,5.9-2.5c0.7-2.8,0.1-5.7-1.8-8c-4.4-5.2-10.4-4.6-16.2-3.8
	c-4.5,0.6-8.1,2.9-8.7,8.1c-0.2,1.7-1.4,2.6-2.9,3.1c-3.6,1.2-7.4,2-10.9,3.4c-2.7,1.1-3.7-0.3-4.5-2.3c-1.9-4.9,0.3-9.2,2.7-13.2
	c4.5-7.2,11.5-10.7,19.7-12.4c10.8-2.3,21.3-1.4,31,3.9c9,4.9,11.7,13.7,12.2,23.2C770.1,121.7,769.8,127.8,769.8,134
	C769.8,134,769.8,134,769.8,134z M730,151.9c11.2,0.1,18.7-7.7,19.5-19.6c0.1-2.3-1.2-3.6-3.4-3.1c-6.2,1.4-12.5,1.5-18.6,3.4
	c-5.8,1.8-9.5,6.2-8.8,11.1C719.3,148.8,723.5,151.8,730,151.9z"/>
<path class="st0" d="M472.2,132.6c0.4,7.4-0.7,15.4,0.9,23.4c0.3,1.3,0.5,2.6,1,3.8c2.7,6.2,2.7,6.1-3.7,6.1c-2.8,0-5.7-0.3-8.5,0.1
	c-4.7,0.5-6.9-2-7.6-6c-0.8-5.1-2.5-3.5-4.8-1.1c-10.4,10.7-26.2,11.8-37.4,4.3c-14.6-9.9-12.7-31.9,3.2-40
	c5.2-2.6,10.7-4.4,16.6-4.9c5.6-0.5,11.1-1.8,16.7-2.5c2.3-0.3,3.2-1.4,3.2-3.5c0.1-3.3-0.7-6.2-3.6-8.3c-4.5-3.4-14.8-3.6-19.4-0.3
	c-1.1,0.8-2.5,1.7-2.7,2.8c-1.5,9.1-9.7,7.5-15.3,9.9c-2.9,1.2-4.3-0.8-4.4-3.7c-0.5-8.8,3.9-14.8,10.8-19.5
	c11.1-7.6,33.1-7.5,44.3,0.1c7.3,4.9,10.2,12.1,10.6,20.4C472.4,119.7,472.2,125.9,472.2,132.6z M432.9,151.9
	c10.9,0,19.2-8.3,19-18.9c0-2,0.1-4.5-3-3.8c-6.2,1.3-12.6,1.4-18.6,3.3c-5.6,1.8-9.7,6.6-9.1,11
	C421.9,148.9,426.1,151.9,432.9,151.9z"/>
<g>
	<path class="st0" d="M29.1,201.9c1.9,2.4,3.9,4.7,5.9,6.9C33,206.6,31,204.3,29.1,201.9z"/>
	<path class="st0" d="M25.2,196.7c-0.7-1-1.3-1.9-2-2.9C23.8,194.8,24.5,195.8,25.2,196.7z"/>
	<path class="st0" d="M17.3,184c1.5,1.8,3.5,2,6.2,1.1c7.2-2.6,11.2-8,11.2-16c0-23.7,0-47.3,0-71c0-8,2.3-15.4,6.7-22.1
		c11.1-17.1,32.6-22,50.8-14.7c11,4.4,18.8,12.7,22.4,24.5c1.7,5.7,2.3,11.4,2.3,17.2c0,19.8-0.2,39.6-0.1,59.5
		c0,7.7,5.2,12.2,11.6,10.4c3.9-1,6.8-5.5,6.7-11.1c-0.1-12.2-0.5-24.3-0.5-36.5c0-10.2,1.1-20.3,7.4-29
		c10.1-14,24.1-19.1,40.6-16.4c14.5,2.3,24.7,10.7,30.2,24.5c2.2,5.5,3.2,11.2,3.3,17c0.1,16.2,0,32.3,0,48.5
		c0,6.7,2.8,11.4,8.7,14.5c3,1.5,5.4,1.5,7.2-0.7c-0.6,1.1-1.2,2.2-1.9,3.3c10.4-18,16.4-38.8,16.4-61.1c0-67.4-54.6-122-122-122
		S2.6,58.6,2.6,126c0,22.3,6,43.1,16.4,61.1C18.4,186.1,17.8,185.1,17.3,184z"/>
	<path class="st0" d="M219.7,202.5c-2.4,3-5,5.9-7.6,8.6C214.7,208.4,217.3,205.5,219.7,202.5z"/>
	<path class="st0" d="M224.1,196.7c0.3-1.2-0.5-1.9-2.4-2.6c-12.4-4.3-16.4-14.1-16.7-26.1c-0.4-16.7,0.8-33.3,0-50
		c-0.6-13.5-9.4-23.6-24.1-27.4c-10.5-2.8-25,3.5-31,13.6c-3.7,6.2-4.9,13-4.9,20.1c0,14,0.3,28,0,42c-0.2,9.8-8.4,17.4-18.2,17.6
		c-12.2,0.3-20.3-7-20.5-19.3c-0.3-14.8,0.1-29.6,0.1-44.5c0-7.7,0.3-15.4-0.5-23c-1.2-12.9-8-22.6-20.5-26.2
		c-12.3-3.6-24.2-1.7-33.2,8.9c-5.9,6.8-7.6,15.1-7.6,23.7c-0.1,21.8,0.2,43.6,0.3,65.5c0.1,12.8-4.9,21.8-17.7,25.6
		c-1.2,0.4-2.3,0.6-2.2,2.2c0,0,0,0.1,0,0.1c1.3,1.8,2.6,3.5,3.9,5.2c2.3,1.4,5,2,7.1,1.2c13-5.5,19.7-15.5,20.2-29.4
		c0.4-12.3,0.1-24.6,0.1-37c0,0,0,0,0.1,0c0-12.2-0.1-24.3,0-36.5C56.7,88.4,65,80,76.1,80.1c10.8,0.1,18.8,8.6,18.8,20.3
		c0,14.8-0.3,29.7-0.1,44.5c0.1,9.9-1.1,19.9,2,29.8c3.5,11.1,13.1,19,24.6,20.3c15.5,1.8,27.3-6.6,31.4-15.5
		c4.7-10.2,4.2-21.1,4-31.9c-0.2-10.2-1-20.3,0.1-30.4c0.8-7,6.5-13.6,13.2-15.4c7.6-2,15.9,0.6,20.2,6.4c3.6,4.7,4.7,10.2,4.7,15.9
		c-0.1,14.7-0.4,29.3-0.5,44c-0.1,13.5,3.5,25.3,16,32.8c5.2,3.1,6.8,3.9,9.2,1.6c2.3-2.8,4.4-5.7,6.4-8.7
		C225.4,194.8,224.7,195.8,224.1,196.7z"/>
	<path class="st0" d="M226.5,193.2c0.5-0.8,1.1-1.6,1.6-2.5C227.5,191.6,227,192.4,226.5,193.2z"/>
	<path class="st0" d="M209,214.1c0.5-1-0.1-1.9-2-3c-6.7-3.8-12.5-8.8-16.6-15.5c-4.6-7.5-6.2-15.8-6.4-24.3
		c-0.3-15.8,0-31.6,0-47.5c0-2-0.1-4-0.6-5.9c-0.8-3.7-3.6-5.7-7-6.3c-3.4-0.6-5.9,1.5-7.8,4.2c-1.7,2.5-1.8,5.3-1.8,8.1
		c0,13.8,0.3,27.6,0,41.5c-0.5,22-15,37.5-36.8,39.9c-23.9,2.6-43.5-14-45.2-37.9c-0.8-11.7-0.2-23.3,0.1-34.9c0-9.7-0.1-19.3,0-29
		c0-3.1-0.7-5.9-2.1-8.6c-1.5-3.1-4.3-4.4-7.3-4.3c-3.3,0.1-6.1,1.9-7.2,5.3c-0.6,2-1.1,4.2-1,6.4c0.1,15.5,0.2,31,0.4,46.5
		c0.1,9.3,0.2,18.6-0.8,27.9c-1.7,16.2-9.6,28-24.3,35.1c-2.5,1.2-2.2,2.3-1.2,3.5c21.8,20.3,51,32.7,83.1,32.7
		c34.1,0,64.9-14,87-36.5C210.8,212.4,209.9,213.3,209,214.1z"/>
	<path class="st0" d="M230.2,187.2c-0.6,1-1.2,2-1.8,2.9C229.1,189.1,229.6,188.2,230.2,187.2z"/>
	<path class="st0" d="M35.1,208.9c2.1,2.2,4.2,4.4,6.4,6.4C39.3,213.2,37.1,211.1,35.1,208.9z"/>
	<path class="st0" d="M20.8,190.1c-0.5-0.8-0.9-1.6-1.4-2.3C19.8,188.5,20.3,189.3,20.8,190.1z"/>
	<path class="st0" d="M21.3,190.9c0.5,0.8,1,1.5,1.5,2.3C22.3,192.4,21.8,191.7,21.3,190.9z"/>
</g>
</svg>
