<?xml version="1.0" encoding="utf-8"?>
<!-- Generator: Adobe Illustrator 25.2.1, SVG Export Plug-In . SVG Version: 6.00 Build 0)  -->
<svg version="1.1" id="Layer_1" xmlns="http://www.w3.org/2000/svg" xmlns:xlink="http://www.w3.org/1999/xlink" x="0px" y="0px"
	 viewBox="0 0 512.1 512.1" style="enable-background:new 0 0 512.1 512.1;" xml:space="preserve">
<style type="text/css">
	.st0{fill:#1777F2;}
	.st1{fill:#FFFFFF;}
</style>
<path class="st0" d="M449.4,0H62.6C28,0,0,28,0,62.5c0,0,0,0,0,0.1v386.9c0,34.6,28,62.6,62.6,62.6h386.9c34.6,0,62.6-28,62.6-62.6
	V62.6C512,28,484,0,449.4,0z"/>
<path class="st1" d="M400.3,217.8c1.5-1.2,3.8-0.9,4.9,0.7c0.5,0.6,0.7,1.3,0.7,2.1v119.8c0,15.6-12.6,28.2-28.2,28.2H134.2
	c-15.6,0-28.2-12.6-28.2-28.2V220.6c0-1.9,1.5-3.5,3.5-3.5c0.8,0,1.6,0.3,2.2,0.8c13.2,10.2,30.5,23.2,90.3,66.6
	c12.3,9,33.2,28,54,27.9c20.9,0.2,42.2-19.2,54.1-27.9C369.8,241,387.2,228,400.3,217.8z M256,293.5c13.6,0.2,33.2-17.1,43-24.2
	c77.7-56.4,83.7-61.3,101.6-75.4c3.4-2.7,5.4-6.8,5.4-11.1v-11.2c0-15.5-12.6-28.1-28.1-28.1c0,0,0,0,0,0H134.2
	c-15.5,0-28.1,12.6-28.2,28.1v11.2c0,4.3,2,8.4,5.4,11.1c17.9,14,23.8,19,101.6,75.4C222.8,276.4,242.4,293.8,256,293.5z"/>
</svg>
