<?xml version="1.0" encoding="utf-8"?>
<!-- Generator: Adobe Illustrator 24.1.3, SVG Export Plug-In . SVG Version: 6.00 Build 0)  -->
<svg version="1.1" id="Layer_1" xmlns="http://www.w3.org/2000/svg" xmlns:xlink="http://www.w3.org/1999/xlink" x="0px" y="0px"
	 viewBox="0 0 401.4 90.9" style="enable-background:new 0 0 401.4 90.9;" xml:space="preserve">
<style type="text/css">
	.st0{fill:#2D72B6;}
</style>
<g>
	<path class="st0" d="M173.4,90.9H17.2C7.7,90.9,0,83.2,0,73.7V17.2C0,7.7,7.7,0,17.2,0h156.2c9.5,0,17.2,7.7,17.2,17.2v56.5
		C190.6,83.2,182.9,90.9,173.4,90.9z M17.2,1.5C8.6,1.5,1.5,8.6,1.5,17.2v56.5c0,8.7,7.1,15.7,15.7,15.7h156.2
		c8.7,0,15.7-7.1,15.7-15.7V17.2c0-8.7-7.1-15.7-15.7-15.7H17.2z"/>
</g>
<g>
	<path class="st0" d="M214,41.2c-0.1,0-0.1,0-0.2,0c-1.4,0-2.7-0.3-4-0.9c-1.2-0.6-2.3-1.5-3.2-2.6c-0.9-1.2-1.6-2.5-2-4
		c-0.9-3.4-0.9-7,0-10.3c0.4-1.4,1.1-2.7,2-3.9c0.8-1.1,1.9-1.9,3.2-2.5c2.6-1.1,5.5-1.1,8,0c1.2,0.6,2.3,1.4,3.2,2.5
		c0.9,1.2,1.6,2.5,2,3.9c0.5,1.7,0.7,3.4,0.7,5.1c0,1.7-0.2,3.5-0.7,5.2c-0.4,1.4-1.1,2.8-2,4c-0.8,1.1-1.9,2-3.1,2.6
		C216.7,40.9,215.4,41.2,214,41.2z M213.9,39.7L213.9,39.7c1.2,0,2.3-0.2,3.4-0.7c1-0.5,1.9-1.2,2.6-2.1c0.8-1,1.4-2.2,1.7-3.5
		c0.4-1.6,0.7-3.2,0.6-4.8c0-1.6-0.2-3.2-0.6-4.7c-0.4-1.2-0.9-2.4-1.7-3.4c-0.7-0.9-1.6-1.6-2.6-2.1c-2.2-0.9-4.6-0.9-6.8,0
		c-1,0.5-1.9,1.2-2.6,2c-0.8,1-1.4,2.1-1.7,3.4c-0.9,3.1-0.9,6.4,0,9.5c0.4,1.3,0.9,2.4,1.7,3.5c0.7,0.9,1.6,1.6,2.6,2.1
		C211.6,39.5,212.7,39.7,213.9,39.7L213.9,39.7z M213.9,36.8L213.9,36.8c-1.6-0.1-2.9-1-3.5-2.5c-0.8-1.8-1.2-3.8-1.1-5.8
		c-0.1-1.9,0.3-3.8,1.1-5.6c0.4-1,1.2-1.8,2.2-2.2c0.9-0.3,2-0.3,2.9,0.1c0.9,0.4,1.6,1.2,1.9,2.1c0.8,1.7,1.2,3.7,1,5.6
		c0.1,1.9-0.3,3.9-1.1,5.7C216.8,35.8,215.5,36.7,213.9,36.8L213.9,36.8z M213.9,22.1c-0.3,0-0.5,0-0.8,0.1
		c-0.6,0.2-1.1,0.7-1.3,1.3c-0.7,1.6-1.1,3.3-1,5c-0.1,1.8,0.2,3.6,0.9,5.2c0.4,0.9,1.2,1.5,2.1,1.6c0.9,0,1.8-0.6,2.1-1.5
		c0.7-1.6,1-3.4,0.9-5.1c0.1-1.8-0.2-3.5-0.9-5c-0.2-0.6-0.6-1.1-1.2-1.3C214.5,22.1,214.2,22.1,213.9,22.1z"/>
</g>
<g>
	<path class="st0" d="M231.7,47.2H225V22h5.5l0.3,1.2c0.5-0.4,1.1-0.7,1.7-1c1-0.4,2-0.7,3-0.7c1.1,0,2.2,0.2,3.2,0.7
		c1,0.5,1.8,1.2,2.5,2c0.7,0.9,1.2,1.9,1.5,3c0.3,1.2,0.5,2.5,0.5,3.8c0,1.4-0.2,2.9-0.7,4.2c-0.4,1.2-1,2.2-1.8,3.2
		c-0.7,0.9-1.6,1.5-2.6,2c-1,0.5-2.1,0.7-3.1,0.7c-1.2,0-2.4-0.4-3.5-1l0.1,1.1V47.2z M226.5,45.7h3.6v-4.2l-0.3-4.8l1.4,1.5
		c1,1,2.4,1.6,3.8,1.6c0.8,0,1.7-0.2,2.5-0.6c0.8-0.4,1.5-0.9,2.1-1.6c0.7-0.8,1.2-1.7,1.5-2.7c0.4-1.2,0.6-2.5,0.6-3.7
		c0-1.2-0.1-2.3-0.4-3.4c-0.3-0.9-0.7-1.8-1.3-2.5c-0.5-0.6-1.2-1.2-1.9-1.5c-0.8-0.4-1.7-0.6-2.5-0.6c-0.9,0-1.7,0.2-2.5,0.5
		c-0.8,0.4-1.6,0.8-2.2,1.4l-0.2,0.2h-0.9l-0.2-0.6l-0.3-1.1h-2.8V45.7z M233.9,37C233.9,37,233.9,37,233.9,37
		c-0.6,0-1.2-0.1-1.7-0.3c-0.7-0.2-1.3-0.6-1.8-1l-0.3-0.2l0-7.6l0.2-0.2c0.9-1.1,2.3-1.8,3.7-1.9c0,0,0,0,0,0
		c1.8,0,3.9,0.9,3.9,5.4c0.1,1.5-0.3,3-1.1,4.3C236.2,36.5,235.1,37,233.9,37z M231.7,34.8c0.3,0.2,0.6,0.4,1,0.5
		c0.4,0.1,0.8,0.2,1.2,0.2c0,0,0,0,0,0c0.7,0,1.4-0.3,1.8-0.9c0.6-1,0.9-2.2,0.9-3.4c0-4-1.8-4-2.4-4c-0.9,0.1-1.8,0.5-2.5,1.1
		L231.7,34.8z"/>
</g>
<g>
	<path class="st0" d="M254.5,41.2c-1.3,0-2.7-0.2-3.9-0.7c-1.2-0.4-2.3-1.1-3.3-1.9c-0.9-0.9-1.7-1.9-2.2-3.1
		c-0.6-1.3-0.9-2.7-0.9-4.1c0-1.4,0.2-2.8,0.8-4.1c0.5-1.2,1.2-2.2,2.2-3.1c0.9-0.8,2-1.5,3.1-1.9c2.4-0.9,5-0.9,7.4,0
		c1.1,0.4,2,1.1,2.8,1.9c0.8,0.8,1.3,1.8,1.7,2.9c0.4,1.1,0.6,2.3,0.6,3.5c0,0.5,0,1-0.1,1.4c0,0.2-0.1,0.4-0.1,0.5
		c0,0.2,0,0.3-0.1,0.4l-0.1,0.6h-11.3c0.2,0.6,0.6,1.1,1.2,1.4c0.9,0.5,1.9,0.8,2.9,0.7c0.7,0,1.4-0.1,2.1-0.3
		c0.7-0.2,1.4-0.5,2.1-0.8l0.7-0.3l2.4,4.3l-0.6,0.4c-1.1,0.7-2.2,1.2-3.5,1.6C257.2,41,255.9,41.2,254.5,41.2
		C254.6,41.2,254.6,41.2,254.5,41.2z M254.1,23.1c-1.1,0-2.1,0.2-3.2,0.6c-1,0.4-1.9,0.9-2.6,1.6c-0.8,0.7-1.4,1.6-1.8,2.6
		c-0.5,1.1-0.7,2.3-0.7,3.5v0c0,1.2,0.2,2.4,0.7,3.5c0.4,1,1,1.9,1.8,2.6c0.8,0.7,1.7,1.3,2.7,1.6c1.1,0.4,2.3,0.6,3.5,0.6
		c1.1,0,2.3-0.2,3.3-0.5c0.9-0.3,1.7-0.6,2.5-1l-1-1.8c-0.5,0.2-1.1,0.5-1.7,0.6c-0.8,0.2-1.6,0.3-2.4,0.3c0,0,0,0,0,0
		c-1.3,0-2.6-0.3-3.7-1c-1.2-0.8-1.9-2-2.1-3.4l-0.1-0.8h11.8c0-0.1,0-0.2,0-0.3c0.1-0.4,0.1-0.8,0.1-1.2c0-1-0.2-2.1-0.5-3
		c-0.3-0.9-0.8-1.7-1.4-2.4c-0.6-0.7-1.4-1.2-2.3-1.5C256.2,23.3,255.2,23.1,254.1,23.1z M258.2,30.3h-8.9l0.1-0.9
		c0.2-1.2,0.8-2.2,1.7-2.9c0.8-0.6,1.9-1,2.9-1c0,0,0,0,0.1,0c1.1-0.1,2.2,0.3,3.1,1.1c0.7,0.9,1.1,1.9,1,2.9L258.2,30.3z
		 M251.2,28.8h5.5c-0.1-0.4-0.3-0.8-0.6-1.1c-0.5-0.5-1.2-0.7-1.9-0.6c-0.8,0-1.5,0.2-2.1,0.7C251.7,28,251.4,28.4,251.2,28.8z"/>
</g>
<g>
	<path class="st0" d="M282.5,40.8h-6.6V30c0.1-0.8-0.1-1.5-0.4-2.1c-0.3-0.4-0.8-0.5-1.3-0.5l-0.1,0l-0.1,0c-0.5,0-1,0.1-1.4,0.4
		c-0.5,0.3-0.9,0.6-1.3,1v12h-6.6V22h5.6l0.3,1.7c0.6-0.5,1.2-0.9,1.8-1.2c1.2-0.6,2.5-0.9,3.8-0.9c1.8-0.2,3.7,0.7,4.9,2.2
		c1.1,1.7,1.6,3.7,1.5,5.7L282.5,40.8z M277.4,39.3h3.6v-9.9c0.1-1.7-0.3-3.3-1.2-4.7c-0.8-1.1-2.2-1.7-3.6-1.5
		c-1.1,0-2.2,0.2-3.1,0.7c-0.9,0.5-1.7,1.1-2.4,1.8l-0.2,0.2h-1.1l-0.4-2.3h-2.8v15.8h3.6V28.2l0.2-0.2c0.5-0.6,1.2-1.1,1.8-1.5
		c0.7-0.4,1.4-0.6,2.2-0.6c1-0.1,2,0.3,2.6,1.1l0.1,0.1c0.5,0.9,0.7,1.9,0.6,3L277.4,39.3z"/>
</g>
<g>
	<path class="st0" d="M293.4,41.2c-0.1,0-0.1,0-0.2,0c-1.6,0-3.2-0.3-4.8-0.9c-1.6-0.6-3.1-1.4-4.4-2.5l-0.6-0.5l4-4.7l0.6,0.5
		c0.8,0.7,1.7,1.2,2.6,1.6c0.9,0.4,1.8,0.6,2.7,0.6c0.8,0.1,1.6-0.1,2.2-0.5c0.3-0.2,0.5-0.5,0.4-0.9c0-0.2,0-0.4-0.1-0.5
		c-0.1-0.2-0.3-0.3-0.5-0.4c-0.3-0.2-0.6-0.4-1-0.5c-0.4-0.2-0.9-0.4-1.4-0.6l-3-1.3c-0.7-0.2-1.3-0.6-1.9-1
		c-0.6-0.4-1.2-0.9-1.7-1.4c-1.1-1.2-1.7-2.9-1.6-4.5c0-1,0.2-2,0.7-2.9c0.5-0.9,1.1-1.7,1.9-2.4c0.9-0.7,1.8-1.2,2.9-1.6
		c1.2-0.4,2.4-0.6,3.6-0.6c0,0,0,0,0,0c3,0,5.9,1.1,8,3.2l0.5,0.5l-3.5,4.3l-0.6-0.4c-0.7-0.5-1.4-0.9-2.2-1.3
		c-0.7-0.3-1.5-0.4-2.3-0.4c-0.7,0-1.4,0.1-2,0.4c-0.3,0.2-0.5,0.5-0.4,0.8c0,0.4,0.2,0.7,0.6,0.9c0.9,0.4,1.8,0.8,2.7,1.1l2.8,1.2
		c1.4,0.5,2.8,1.3,3.8,2.5c1.1,1.3,1.6,2.8,1.5,4.4c0,1-0.2,2-0.7,3c-0.5,1-1.1,1.8-1.9,2.5c-0.9,0.7-1.9,1.3-3,1.7
		C295.9,41,294.7,41.2,293.4,41.2z M285.6,37.1c1,0.8,2.1,1.4,3.3,1.8c1.4,0.5,2.8,0.8,4.3,0.8c1.2,0,2.4-0.2,3.5-0.5
		c0.9-0.3,1.8-0.8,2.5-1.4c0.6-0.5,1.1-1.2,1.5-2c0.3-0.7,0.5-1.6,0.5-2.4c0.1-1.3-0.3-2.4-1.1-3.4c-0.9-0.9-2-1.7-3.2-2.1l-2.8-1.2
		c-0.9-0.3-1.8-0.7-2.7-1.1c-0.9-0.3-1.5-1.3-1.5-2.2c0-0.9,0.4-1.7,1.2-2.1c0.9-0.5,1.8-0.7,2.8-0.7c0.9,0,1.9,0.2,2.8,0.5
		c0.7,0.3,1.3,0.6,1.9,1l1.7-2.1c-1.8-1.5-4.1-2.3-6.5-2.3c0,0-0.1,0-0.1,0c-1,0-2,0.2-3,0.5c-0.9,0.3-1.7,0.7-2.4,1.3
		c-0.6,0.5-1.1,1.2-1.5,1.9c-0.4,0.7-0.5,1.5-0.5,2.3c0,1.3,0.4,2.5,1.3,3.5c0.4,0.4,0.9,0.8,1.4,1.2c0.5,0.3,1.1,0.6,1.7,0.8l3,1.3
		c0.6,0.2,1.1,0.4,1.5,0.6c0.4,0.2,0.8,0.4,1.2,0.6c0.4,0.2,0.7,0.5,0.9,0.9c0.3,0.4,0.4,0.9,0.4,1.3c0,0.9-0.4,1.7-1.1,2.2
		c-1,0.6-2,0.8-3.1,0.7c-1.1,0-2.2-0.3-3.3-0.7c-0.8-0.4-1.6-0.8-2.4-1.4L285.6,37.1z"/>
</g>
<g>
	<path class="st0" d="M315.9,41.2c-1.2,0-2.3-0.2-3.5-0.6c-1-0.4-1.9-1-2.6-1.7c-0.7-0.8-1.2-1.7-1.4-2.7c-0.3-1.1-0.4-2.2-0.4-3.3
		v-5.3h-4.3v-5.3l4.7-0.2l0.7-4.6h5.6V22h7.3v5.5h-7.3v5.3c-0.1,0.9,0.2,1.6,0.6,2.3c0.6,0.5,1.4,0.7,2.2,0.6c0.6,0,1.2-0.1,1.8-0.2
		c0.5-0.1,1-0.2,1.5-0.4l0.8-0.3l1.3,5.2l-0.7,0.2c-0.8,0.2-1.6,0.4-2.6,0.7c-1.1,0.2-2.2,0.3-3.2,0.3C316,41.2,316,41.2,315.9,41.2
		z M305.1,26h4.3v6.8c0,1,0.1,2,0.4,2.9c0.2,0.8,0.6,1.5,1.1,2.1c0.5,0.6,1.2,1.1,2,1.3c1,0.4,2.1,0.5,3.2,0.5c1,0,2-0.1,2.9-0.3
		c0.7-0.1,1.3-0.3,1.8-0.4l-0.5-2.2c-0.3,0.1-0.6,0.2-0.9,0.2c-0.7,0.1-1.3,0.2-2,0.2c-1.1,0.1-2.3-0.3-3.2-1l-0.1-0.1
		c-0.8-0.9-1.2-2.2-1-3.4l0-6.7h7.3v-2.5H313v-4.6h-2.8l-0.7,4.6l-4.5,0.2V26z"/>
</g>
<g>
	<path class="st0" d="M330.2,41.2c-0.9,0-1.7-0.1-2.5-0.4c-2.3-0.8-3.8-3.1-3.8-5.5c-0.1-2.2,1.1-4.2,3.1-5.1c1.2-0.6,2.4-1,3.7-1.3
		c1.4-0.3,2.9-0.5,4.4-0.6c-0.1-0.2-0.3-0.4-0.5-0.6c-0.6-0.4-1.4-0.6-2.2-0.5c-0.8,0-1.6,0.1-2.3,0.4c-0.9,0.3-1.8,0.7-2.6,1.1
		l-0.7,0.3l-2.5-4.6l0.6-0.4c1.2-0.7,2.6-1.3,3.9-1.7c1.5-0.5,3-0.7,4.5-0.7c2.2-0.1,4.5,0.6,6.2,2.1c1.6,1.4,2.3,3.6,2.3,6.5v10.6
		h-5.6l-0.3-1.5c-0.7,0.5-1.4,0.9-2.2,1.2C332.7,40.9,331.5,41.2,330.2,41.2C330.2,41.2,330.2,41.2,330.2,41.2z M332.6,25.7
		c0.9,0,1.9,0.3,2.7,0.8c0.8,0.6,1.3,1.5,1.3,2.4l0.1,0.8l-0.8,0c-1.7,0.1-3.4,0.3-5.1,0.6c-1.2,0.2-2.3,0.6-3.3,1.2
		c-1.4,0.7-2.3,2.2-2.2,3.7l0,0c0,1.8,1.1,3.5,2.8,4.1c0.7,0.2,1.4,0.4,2.1,0.4c1,0,2-0.2,2.9-0.6c1-0.4,1.9-1,2.7-1.6l0.2-0.2h1
		l0.4,1.9h2.8v-9.1c0-2.4-0.6-4.2-1.8-5.3c-1.4-1.2-3.3-1.8-5.2-1.7c-1.4,0-2.8,0.2-4.1,0.6c-1,0.3-2.1,0.8-3,1.3l1.1,2
		c0.7-0.3,1.4-0.6,2.2-0.9c0.9-0.3,1.8-0.5,2.8-0.5C332.4,25.7,332.5,25.7,332.6,25.7z M330.3,38.2l-0.8-1.7
		c-0.5-0.4-0.8-1.1-0.7-1.7l0.2-2.8l0.5,1.1c0.3-0.3,0.6-0.6,1-0.8c0.7-0.3,1.4-0.5,2.2-0.7c1.1-0.2,2.2-0.3,3.3-0.4l0.8,0v4
		l-0.3,0.2c-0.6,0.5-1.3,0.9-2.1,1.2c-0.8,0.4-1.6,0.5-2.5,0.5c0,0,0,0,0,0c-0.5,0-1.1-0.1-1.6-0.3L330.3,38.2z M330.3,35.1
		c0,0.2,0.1,0.3,0.3,0.4c0.4,0.2,0.8,0.3,1.3,0.3c0,0,0,0,0,0c0.7,0,1.3-0.1,1.9-0.4c0.5-0.2,1-0.5,1.5-0.9v-1.7
		c-0.8,0.1-1.5,0.2-2.3,0.3c-0.6,0.1-1.2,0.3-1.8,0.6c-0.3,0.1-0.5,0.3-0.7,0.6c-0.1,0.2-0.2,0.4-0.2,0.6L330.3,35.1z"/>
</g>
<g>
	<path class="st0" d="M354.1,41.2c-1.3,0-2.7-0.2-4-0.6c-1.2-0.4-2.3-1.1-3.3-1.9c-1-0.9-1.7-1.9-2.2-3.1c-0.6-1.3-0.8-2.7-0.8-4.1
		c0-1.4,0.3-2.9,0.9-4.2c0.6-1.2,1.4-2.2,2.4-3.1c1-0.8,2.2-1.5,3.4-1.9c1.3-0.4,2.6-0.6,4-0.6c0.1,0,0.1,0,0.2,0
		c1.3,0,2.6,0.2,3.8,0.7c1.1,0.4,2.1,1,3,1.8l0.5,0.5l-3.2,4.3l-0.6-0.5c-1-0.8-2.2-1.2-3.4-1.2c-1.1,0-2.3,0.4-3.1,1.1
		c-0.8,0.8-1.2,1.9-1.2,3c-0.1,1.1,0.3,2.1,0.9,2.9s1.6,1.2,2.6,1.3c0.2,0,0.3,0,0.5,0c0.8,0,1.6-0.1,2.3-0.4
		c0.6-0.3,1.3-0.6,1.8-1.1l0.6-0.5l2.9,4.5l-0.5,0.4c-1.1,0.9-2.3,1.6-3.7,2.1C356.8,41,355.5,41.2,354.1,41.2
		C354.2,41.2,354.1,41.2,354.1,41.2z M354.6,23.1c-1.2,0-2.4,0.2-3.5,0.6c-1.1,0.4-2.1,0.9-3,1.6c-0.8,0.7-1.5,1.6-2,2.6
		c-0.5,1.1-0.8,2.3-0.7,3.5v0c0,1.2,0.2,2.4,0.7,3.5c0.4,1,1,1.9,1.8,2.6c0.8,0.7,1.7,1.3,2.7,1.6c1.1,0.4,2.4,0.6,3.5,0.6
		c1.2,0,2.3-0.2,3.4-0.6c1-0.3,1.9-0.8,2.7-1.4l-1.3-2c-0.5,0.3-1,0.6-1.5,0.8c-0.9,0.4-1.8,0.6-2.8,0.6c0,0,0,0,0,0
		c-0.2,0-0.4,0-0.6,0c-1.4-0.1-2.7-0.8-3.7-1.8c-0.9-1.1-1.4-2.5-1.3-3.9c-0.1-1.5,0.5-3,1.6-4.1c1.1-1.1,2.6-1.6,4.2-1.5
		c1.3,0,2.5,0.4,3.6,1.1l1.5-2c-0.6-0.5-1.3-0.8-2-1.1C357,23.3,355.8,23.1,354.6,23.1C354.6,23.1,354.6,23.1,354.6,23.1z"/>
</g>
<g>
	<path class="st0" d="M370.7,40.8H364l0-25.9h6.6v13l5.4-6h7.6l-7.3,7.9l7.6,10.9h-7.4l-4.2-6.5l-1.7,1.8V40.8z M365.5,39.3h3.6
		v-3.9l3.4-3.6l4.8,7.5h3.7l-6.6-9.5l5.8-6.3h-3.6l-6.3,7h-1.2V16.4h-3.6L365.5,39.3z"/>
</g>
<g>
	<path class="st0" d="M213.1,76h-6.6l0-24.2H223v5.8h-9.8v3.8h8.4v5.8h-8.4V76z M208,74.5h3.6v-8.8h8.4v-2.8h-8.4v-6.8h9.8v-2.8H208
		L208,74.5z"/>
</g>
<g>
	<path class="st0" d="M233.8,76.5c-1.2,0-2.4-0.2-3.6-0.7c-1.1-0.4-2.2-1.1-3.1-1.9c-0.9-0.9-1.7-1.9-2.2-3.1
		c-0.6-1.3-0.9-2.7-0.8-4.2c0-1.4,0.2-2.8,0.8-4.1c0.5-1.2,1.2-2.2,2.2-3.1c0.9-0.8,1.9-1.5,3.1-1.9c2.3-0.9,4.8-0.9,7.1,0
		c1.1,0.4,2.2,1.1,3.1,1.9c0.9,0.9,1.7,1.9,2.2,3.1c1.1,2.7,1.1,5.6,0,8.3c-1,2.3-2.9,4.1-5.2,5C236.2,76.2,235,76.5,233.8,76.5z
		 M233.8,58.4c-1,0-2,0.2-3,0.6c-1,0.4-1.8,0.9-2.6,1.6c-0.8,0.7-1.4,1.6-1.8,2.6c-0.5,1.1-0.7,2.3-0.7,3.5v0c0,1.2,0.2,2.4,0.7,3.6
		c0.4,1,1,1.9,1.8,2.6c0.8,0.7,1.6,1.2,2.6,1.6c2,0.8,4.1,0.8,6,0c2-0.7,3.6-2.3,4.4-4.2c0.9-2.3,0.9-4.8,0-7.1
		c-0.4-1-1-1.8-1.8-2.6c-0.7-0.7-1.6-1.2-2.6-1.6C235.8,58.6,234.8,58.4,233.8,58.4z M233.7,72.3c-1.2,0-2.5-0.6-3.3-1.6
		c-0.8-1.3-1.1-2.6-1-4c-0.1-1.4,0.3-2.8,1-4c0.3-0.4,0.5-0.6,0.8-0.8c1.8-1.4,4.4-1,5.7,0.8l0.1,0.1c1.3,2.5,1.3,5.4,0,7.9
		l-0.1,0.1c-0.2,0.3-0.5,0.6-0.8,0.8C235.5,72,234.6,72.3,233.7,72.3z M233.7,62.5c-0.5,0-1.1,0.2-1.6,0.5c-0.2,0.1-0.4,0.3-0.5,0.5
		c-0.5,0.9-0.8,2-0.7,3.1l0,0l0,0c-0.1,1.1,0.2,2.2,0.8,3.2c0.8,1.1,2.5,1.3,3.6,0.4c0.2-0.1,0.3-0.3,0.5-0.4c1-2,1-4.4,0-6.4
		C235.3,62.8,234.5,62.5,233.7,62.5z"/>
</g>
<g>
	<path class="st0" d="M250.4,76.5c-1.7,0-3.3-0.8-4.4-2.2c-1.1-1.7-1.6-3.7-1.5-5.6l0-11.4h6.6V68c-0.1,0.8,0.1,1.5,0.4,2.1
		c0.3,0.4,0.8,0.5,1.3,0.5l0.1,0l0.1,0c0.5,0,0.9-0.1,1.4-0.3c0.5-0.3,0.9-0.7,1.3-1.2V57.3h6.6l0,18.8h-5.6l-0.3-1.7
		c-0.5,0.5-1.1,0.9-1.8,1.3c-1.1,0.6-2.4,0.9-3.7,0.9C250.7,76.5,250.6,76.5,250.4,76.5z M246,58.8v9.9c-0.1,1.7,0.3,3.3,1.2,4.8
		c0.8,1.1,2.2,1.7,3.6,1.5c1.1,0,2.1-0.2,3-0.7c0.9-0.5,1.7-1.2,2.3-1.9l0.2-0.3h1.1l0.4,2.5h2.8l0-15.8H257v10.9l-0.1,0.2
		c-0.5,0.7-1.1,1.3-1.9,1.8c-0.7,0.4-1.4,0.5-2.1,0.5c-1,0.1-2-0.3-2.6-1.1l-0.1-0.1c-0.5-0.9-0.7-1.9-0.6-2.9l0-9.2H246z"/>
</g>
<g>
	<path class="st0" d="M282.5,76h-6.6V65.3c0.1-0.8-0.1-1.5-0.4-2.1c-0.3-0.4-0.8-0.5-1.3-0.5l-0.1,0l-0.1,0c-0.5,0-1,0.1-1.4,0.4
		c-0.5,0.3-0.9,0.6-1.3,1v12h-6.6V57.3h5.6l0.3,1.7c0.6-0.5,1.2-0.9,1.8-1.2c1.2-0.6,2.5-0.9,3.8-0.9c1.8-0.2,3.7,0.7,4.9,2.2
		c1.1,1.7,1.6,3.7,1.5,5.7L282.5,76z M277.4,74.5h3.6v-9.9c0.1-1.7-0.3-3.3-1.2-4.7c-0.8-1.1-2.2-1.7-3.6-1.5
		c-1.1,0-2.2,0.2-3.1,0.7c-0.9,0.5-1.7,1.1-2.4,1.8l-0.2,0.2h-1.1l-0.4-2.3h-2.8v15.7h3.6V63.5l0.2-0.2c0.5-0.6,1.2-1.1,1.8-1.5
		c0.7-0.4,1.4-0.6,2.1-0.6c0,0,0,0,0,0c1-0.1,2,0.3,2.6,1.1l0.1,0.1c0.5,0.9,0.7,1.9,0.6,3L277.4,74.5z"/>
</g>
<g>
	<path class="st0" d="M291.6,76.5c-1.1,0-2.2-0.2-3.2-0.7c-1-0.5-1.9-1.1-2.6-2c-0.7-0.9-1.3-2-1.6-3.1c-0.4-1.3-0.6-2.7-0.5-4
		c0-1.4,0.2-2.7,0.7-4c0.4-1.1,1-2.2,1.8-3.1c0.7-0.8,1.6-1.5,2.6-2c1-0.5,2-0.7,3.1-0.7c0.9,0,1.9,0.2,2.8,0.6
		c0.3,0.1,0.5,0.3,0.7,0.4l-0.1-1l0-6.7h6.6V76h-5.5l-0.3-1.2c-0.5,0.4-1,0.7-1.5,0.9c-0.9,0.5-1.9,0.7-2.9,0.7
		C291.7,76.5,291.6,76.5,291.6,76.5z M291.8,58.4c-0.9,0-1.7,0.2-2.4,0.5c-0.8,0.4-1.5,0.9-2.1,1.6c-0.7,0.8-1.2,1.6-1.5,2.6
		c-0.4,1.1-0.6,2.3-0.6,3.5v0c0,1.2,0.1,2.4,0.5,3.6c0.3,0.9,0.7,1.8,1.3,2.6c0.5,0.7,1.2,1.2,2,1.6c0.8,0.4,1.8,0.6,2.7,0.6
		c0.8,0,1.6-0.2,2.3-0.5c0.8-0.4,1.4-0.9,2-1.4l0.2-0.2h1l0.4,1.8h2.8V51.6h-3.6v5.1l0.3,4.5l-1.4-1.3c-0.5-0.5-1.1-0.9-1.7-1.2
		C293.3,58.5,292.6,58.3,291.8,58.4C291.8,58.4,291.8,58.4,291.8,58.4z M292.8,72.3c-1.1,0-2.2-0.5-2.9-1.5c-0.8-1.3-1.1-2.7-1-4.2
		c-0.1-1.5,0.3-2.9,1.2-4.1c0.8-0.9,1.9-1.5,3.1-1.5c0,0,0,0,0,0c1.3,0,2.5,0.5,3.4,1.4l0.2,0.2v7.6l-0.1,0.2
		c-0.4,0.6-1,1.1-1.7,1.5c-0.6,0.3-1.3,0.4-2,0.4C293,72.3,292.9,72.3,292.8,72.3z M293.2,62.5C293.2,62.5,293.2,62.5,293.2,62.5
		c-0.8,0-1.5,0.3-1.9,0.9c-0.6,0.9-1,2-0.9,3.1l0,0.1l0,0.1c-0.1,1.2,0.2,2.3,0.8,3.3c0.4,0.5,1.1,0.9,1.8,0.8
		c0.5,0,0.9-0.1,1.3-0.3c0.4-0.2,0.7-0.5,1-0.8v-6.4C294.7,62.8,294,62.5,293.2,62.5z"/>
</g>
<g>
	<path class="st0" d="M310.3,76.5c-0.9,0-1.7-0.2-2.5-0.4c-0.8-0.3-1.4-0.7-2-1.3c-1.1-1.1-1.8-2.7-1.8-4.3l0-0.7h0.1
		c0.1-0.8,0.3-1.5,0.7-2.2c0.6-0.9,1.4-1.7,2.3-2.2c1.2-0.6,2.4-1.1,3.7-1.3c1.4-0.3,2.9-0.5,4.4-0.6c-0.1-0.2-0.3-0.4-0.5-0.6
		c-0.6-0.4-1.4-0.6-2.1-0.5c-0.8,0-1.6,0.1-2.3,0.4c-0.9,0.3-1.8,0.7-2.6,1.1l-0.7,0.3l-2.5-4.6l0.6-0.4c1.3-0.7,2.6-1.3,3.9-1.7
		c1.4-0.5,2.9-0.7,4.4-0.7c0,0,0,0,0.1,0c2.2-0.1,4.4,0.6,6.2,2.1c1.6,1.4,2.4,3.6,2.4,6.5V76h-5.5l-0.3-1.5
		c-0.7,0.5-1.5,0.9-2.3,1.2c-1.1,0.5-2.3,0.7-3.5,0.7C310.3,76.5,310.3,76.5,310.3,76.5z M305.5,71.2c0.1,0.9,0.6,1.8,1.3,2.4
		c0.4,0.4,0.9,0.7,1.5,0.9c0.7,0.2,1.4,0.4,2.1,0.4c1,0,2-0.2,3-0.6c1-0.4,1.9-1,2.7-1.6l0.2-0.2h1.1l0.4,2h2.8v-9.1
		c0-2.4-0.6-4.2-1.8-5.3c-1.4-1.2-3.3-1.8-5.2-1.7c-1.4,0-2.8,0.2-4.1,0.6c-1,0.3-2.1,0.8-3,1.3l1.1,2c0.7-0.3,1.4-0.6,2.2-0.9
		c0.9-0.3,1.8-0.5,2.8-0.5c1.1-0.1,2.1,0.2,3.1,0.8c0.8,0.6,1.3,1.5,1.4,2.4l0.1,0.8l-0.8,0c-1.7,0.1-3.4,0.3-5.1,0.6
		c-1.2,0.2-2.3,0.6-3.3,1.2c-0.7,0.4-1.3,0.9-1.7,1.6c-0.4,0.6-0.5,1.4-0.5,2.2L305.5,71.2L305.5,71.2z M311.8,72.5
		c-0.6,0-1.3-0.2-1.9-0.5c-0.7-0.4-1.1-1.1-1-1.9c0-0.5,0.1-1,0.4-1.4c0.3-0.5,0.8-0.9,1.3-1.1c0.7-0.3,1.4-0.5,2.2-0.7
		c1.1-0.2,2.2-0.3,3.3-0.4l0.8,0v4l-0.3,0.2c-0.6,0.5-1.3,0.9-2.1,1.2c-0.8,0.4-1.6,0.5-2.5,0.5C312,72.5,311.9,72.5,311.8,72.5z
		 M315.4,68c-0.8,0.1-1.5,0.2-2.3,0.3c-0.6,0.1-1.2,0.3-1.8,0.6c-0.3,0.1-0.5,0.3-0.7,0.6c-0.1,0.2-0.2,0.4-0.2,0.6l0,0.1
		c0,0.2,0.1,0.4,0.3,0.5c0.4,0.2,0.9,0.3,1.3,0.3c0,0,0,0,0,0c0.7,0,1.3-0.1,1.8-0.4c0.5-0.2,1-0.5,1.5-0.9V68z"/>
</g>
<g>
	<path class="st0" d="M335.7,76.4c-1.2,0-2.3-0.2-3.5-0.6c-1-0.4-1.9-1-2.6-1.7c-0.7-0.8-1.2-1.7-1.4-2.7c-0.3-1.1-0.4-2.2-0.4-3.3
		l0-5.3h-4.4v-5.3l4.7-0.2l0.7-4.6h5.6v4.6h7.3v5.5h-7.3v5.3c-0.1,0.9,0.2,1.6,0.6,2.3c0.6,0.5,1.4,0.7,2.2,0.6
		c0.6,0,1.2-0.1,1.8-0.2c0.5-0.1,1-0.2,1.5-0.4l0.8-0.3l1.3,5.2l-0.7,0.2c-0.9,0.3-1.7,0.5-2.6,0.7c-1.1,0.2-2.2,0.3-3.2,0.3
		C335.9,76.4,335.8,76.4,335.7,76.4z M324.9,61.3h4.3l0,6.8c0,1,0.1,2,0.4,2.9c0.2,0.8,0.6,1.5,1.1,2.1c0.5,0.6,1.2,1.1,2,1.3
		c1,0.4,2.1,0.5,3.2,0.5c1,0,2-0.1,2.9-0.3c0.6-0.1,1.2-0.3,1.8-0.4l-0.5-2.2c-0.3,0.1-0.6,0.2-0.9,0.2c-0.6,0.1-1.3,0.2-2,0.2
		c-1.1,0.1-2.3-0.2-3.2-1l-0.1-0.1c-0.8-0.9-1.2-2.2-1-3.4l0-6.7h7.3v-2.5h-7.3v-4.6h-2.8l-0.7,4.6l-4.5,0.2V61.3z"/>
</g>
<g>
	<path class="st0" d="M357.8,76h-6.6V62.8h-6.9l0.1-5.5h13.5V76z M352.7,74.5h3.6V58.8h-10.5l0,2.5h6.9V74.5z M354.1,56.2
		c-1,0-2-0.4-2.8-1c-0.8-0.7-1.3-1.8-1.2-2.9c0-1,0.4-2.1,1.2-2.8c1.7-1.4,4.2-1.4,5.9,0c0.8,0.8,1.3,1.8,1.3,2.9
		c0,1.1-0.4,2.1-1.3,2.8c-0.8,0.7-1.9,1.1-2.9,1C354.2,56.2,354.2,56.2,354.1,56.2z M354.3,49.9c-0.7,0-1.4,0.2-2,0.7
		c-0.4,0.4-0.7,1.1-0.7,1.7c0,0.7,0.2,1.3,0.7,1.7c0.5,0.4,1.2,0.7,1.9,0.6l0,0l0,0c0.7,0,1.4-0.2,1.9-0.7c0.5-0.4,0.8-1,0.7-1.7
		c0-0.7-0.3-1.3-0.8-1.8C355.7,50.2,355,49.9,354.3,49.9z"/>
</g>
<g>
	<path class="st0" d="M372.6,76.5c-1.2,0-2.4-0.2-3.6-0.7c-1.1-0.4-2.2-1.1-3.1-1.9c-0.9-0.9-1.7-1.9-2.2-3.1
		c-0.6-1.3-0.8-2.7-0.8-4.1c0-1.4,0.2-2.8,0.8-4.1c0.5-1.2,1.2-2.2,2.2-3.1c0.9-0.8,1.9-1.5,3.1-1.9c2.3-0.9,4.8-0.9,7.1,0
		c1.1,0.4,2.2,1.1,3.1,1.9c0.9,0.9,1.7,1.9,2.2,3.1c1.1,2.7,1.1,5.6,0,8.3c-1,2.3-2.9,4.1-5.2,5C375,76.2,373.8,76.5,372.6,76.5z
		 M372.6,58.4c-1,0-2,0.2-3,0.6c-1,0.4-1.8,0.9-2.6,1.6c-0.8,0.7-1.4,1.6-1.8,2.6c-0.5,1.1-0.7,2.3-0.7,3.5v0c0,1.2,0.2,2.4,0.7,3.5
		c0.4,1,1,1.8,1.8,2.6c0.8,0.7,1.6,1.2,2.6,1.6c2,0.8,4.1,0.8,6,0c2-0.7,3.6-2.3,4.4-4.2c0.9-2.3,0.9-4.8,0-7.1
		c-0.4-1-1-1.8-1.8-2.6c-0.7-0.7-1.6-1.2-2.6-1.6C374.6,58.5,373.6,58.4,372.6,58.4z M372.6,72.3c-1.2,0-2.5-0.6-3.3-1.6
		c-0.8-1.3-1.1-2.6-1-4c-0.1-1.4,0.3-2.8,1-4c0.3-0.4,0.5-0.6,0.8-0.8c1.8-1.4,4.4-1,5.7,0.8l0.1,0.1c1.3,2.5,1.3,5.4,0,7.9
		l-0.1,0.1c-0.2,0.3-0.5,0.6-0.8,0.8C374.3,72,373.4,72.3,372.6,72.3z M372.6,62.5c-0.5,0-1.1,0.2-1.6,0.5c-0.2,0.1-0.4,0.3-0.5,0.5
		c-0.5,0.9-0.8,2-0.7,3.1l0,0l0,0c-0.1,1.1,0.2,2.2,0.8,3.2c0.8,1.1,2.5,1.3,3.6,0.4c0.2-0.1,0.3-0.3,0.5-0.4c1-2,1-4.4,0-6.4
		C374.1,62.8,373.3,62.5,372.6,62.5z"/>
</g>
<g>
	<path class="st0" d="M401.5,76h-6.6V65.3c0.1-0.8-0.1-1.5-0.4-2.1c-0.3-0.4-0.8-0.5-1.3-0.5l-0.1,0l-0.1,0c-0.5,0-1,0.1-1.4,0.4
		c-0.5,0.3-0.9,0.6-1.3,1v12h-6.6V57.3h5.6l0.3,1.7c0.6-0.5,1.2-0.9,1.8-1.2c1.2-0.6,2.5-0.9,3.8-0.9c1.8-0.2,3.7,0.7,4.9,2.2
		c1.1,1.7,1.6,3.7,1.5,5.7L401.5,76z M396.4,74.5h3.6v-9.9c0.1-1.7-0.3-3.3-1.2-4.7c-0.8-1.1-2.2-1.7-3.6-1.5
		c-1.1,0-2.2,0.2-3.1,0.7c-0.9,0.5-1.7,1.1-2.4,1.8l-0.2,0.2h-1.1l-0.4-2.3h-2.8v15.7h3.6V63.5l0.2-0.2c0.5-0.6,1.2-1.1,1.8-1.5
		c0.7-0.4,1.4-0.6,2.1-0.6c0,0,0,0,0,0c1-0.1,2,0.3,2.6,1.1l0.1,0.1c0.5,0.9,0.7,1.9,0.6,3L396.4,74.5z"/>
</g>
<g>
	<path class="st0" d="M46.6,77.1c-10.9,0-21.5-5.6-27.4-15.7c-8.8-15.1-3.6-34.5,11.4-43.2c14.6-8.5,33.2-3.9,42.3,10
		c2.6-7.9,9.9-13.2,18.4-13.2c0,0,0,0,0,0h31c0.3,0,0.6,0.1,0.9,0.2c0.6,0.2,1,0.7,1.2,1.2c0.2,0.6,0.2,1.2,0,1.7l-4.9,11.8
		c-0.4,0.9-1.2,1.4-2.1,1.4c0,0,0,0,0,0H91.4c-1.6,0-3,1.3-3,3c0,1.6,1.3,3,3,3h14.9c0,0,0,0,0,0c7,0,13.4,3.8,16.8,9.7V34.3
		c0-10.7,8.7-19.4,19.4-19.4h30.9c0.3,0,0.6,0.1,0.8,0.2c0.6,0.2,1,0.7,1.2,1.2c0.2,0.6,0.2,1.2,0,1.7l-4.9,11.8
		c-0.4,0.9-1.2,1.4-2.1,1.4c0,0,0,0,0,0h-26c-1.6,0-3,1.3-3,3v3h24.7c0.3,0,0.6,0.1,0.9,0.2c0.6,0.2,1,0.7,1.2,1.2s0.2,1.2,0,1.7
		l-4.9,11.8c-0.4,0.9-1.2,1.4-2.1,1.4c0,0,0,0,0,0h-19.8v20.1c0,1.3-1,2.3-2.3,2.3l-11.8,0c-1.3,0-2.3-1-2.3-2.3v-7.5
		c-3.4,5.9-9.8,9.8-16.8,9.8c0,0,0,0,0,0h-31c-0.3,0-0.6-0.1-0.9-0.2c-0.6-0.2-1-0.7-1.2-1.2c-0.2-0.6-0.2-1.2,0-1.7L78.1,61
		c0.4-0.9,1.2-1.4,2.1-1.4c0,0,0,0,0,0h26.1c1.6,0,3-1.3,3-3c0-0.8-0.3-1.5-0.9-2.1s-1.3-0.9-2.1-0.9H91.4c0,0,0,0-0.1,0
		c-5,0-9.7-1.9-13.3-5.3c-0.9,10.2-6.7,19.3-15.6,24.5C57.4,75.7,52,77.1,46.6,77.1z M46.5,15.4c-5.1,0-10.3,1.3-15.1,4.1
		C17,27.8,12.2,46.3,20.5,60.6C28.8,75,47.3,79.9,61.7,71.5c9-5.2,14.6-14.5,15-24.9l0.1-1.9l1.2,1.4c3.4,3.8,8.3,6,13.4,6
		c0,0,0,0,0,0h14.9c1.2,0,2.3,0.5,3.2,1.3c0.8,0.8,1.3,2,1.3,3.2c0,2.5-2,4.5-4.5,4.5H80.2c0,0,0,0,0,0c-0.3,0-0.6,0.2-0.7,0.5
		l-4.9,11.8c-0.1,0.2-0.1,0.4,0,0.6s0.2,0.3,0.4,0.4c0.1,0,0.2,0.1,0.3,0.1h31c0,0,0,0,0,0c7.6,0,14.3-4.8,16.9-11.9l1.5-4.1v15.3
		c0,0.4,0.3,0.8,0.7,0.8h11.9c0.4,0,0.8-0.3,0.8-0.8V52.2h21.3c0,0,0,0,0,0c0.3,0,0.6-0.2,0.7-0.5l4.9-11.8c0.1-0.2,0.1-0.4,0-0.6
		c-0.1-0.2-0.2-0.3-0.4-0.4c-0.1,0-0.2-0.1-0.3-0.1H138v-4.5c0-2.5,2-4.5,4.5-4.5h26h0c0.3,0,0.6-0.2,0.7-0.5l4.9-11.8
		c0.1-0.2,0.1-0.4,0-0.6c-0.1-0.2-0.2-0.3-0.4-0.4c-0.1,0-0.2-0.1-0.3-0.1h-30.9c-9.9,0-17.9,8-17.9,17.9v20.5l-1.5-4.1
		c-2.5-7.1-9.3-11.9-16.9-11.9c0,0,0,0,0,0H91.4c-2.5,0-4.5-2-4.5-4.5c0-2.5,2-4.5,4.5-4.5h26.1c0,0,0,0,0,0c0.3,0,0.6-0.2,0.7-0.5
		l4.9-11.8c0.1-0.2,0.1-0.4,0-0.6c-0.1-0.2-0.2-0.3-0.4-0.4c-0.1,0-0.2-0.1-0.3-0.1c0,0,0,0,0,0h-31c0,0,0,0,0,0
		c-8.3,0-15.5,5.6-17.4,13.7L73.5,32l-0.9-1.6C67,20.7,56.9,15.4,46.5,15.4z M46.5,61.1c-4.2,0-8.1-1.6-11.1-4.6
		c-3-3-4.6-6.9-4.6-11.1c0-8.6,7-15.7,15.6-15.7c0,0,0,0,0,0c4.2,0,8.1,1.6,11.1,4.6c3,3,4.6,6.9,4.6,11.1
		C62.1,54.1,55.1,61.1,46.5,61.1L46.5,61.1C46.5,61.1,46.5,61.1,46.5,61.1z M46.5,31.3C46.5,31.3,46.5,31.3,46.5,31.3
		c-7.8,0-14.2,6.4-14.2,14.2c0,3.8,1.5,7.3,4.2,10c2.7,2.7,6.2,4.1,10,4.1c0,0,0,0,0,0l0,0c7.8,0,14.1-6.4,14.2-14.2
		c0-3.8-1.5-7.3-4.2-10C53.8,32.8,50.3,31.3,46.5,31.3z"/>
</g>
</svg>
