
<svg width="21px" height="20px" viewBox="0 0 21 20" version="1.1" xmlns="http://www.w3.org/2000/svg" xmlns:xlink="http://www.w3.org/1999/xlink">
    <g id="Desktop" stroke="none" stroke-width="1" fill="none" fill-rule="evenodd">
        <g id="OS-Staff---op-2" transform="translate(-1153.000000, -1063.000000)" fill="#133E68" fill-rule="nonzero">
            <g id="social" transform="translate(1079.000000, 1063.000000)">
                <g id="Group-3" transform="translate(74.000000, 0.000000)">
                    <rect id="Rectangle" x="0" y="6" width="4" height="14"></rect>
                    <path d="M17.5941818,6.16418182 C17.5458182,6.14890909 17.5,6.13236364 17.4490909,6.11836364 C17.388,6.10436364 17.3269091,6.09290909 17.2645455,6.08272727 C17.0227273,6.03436364 16.758,6 16.4474545,6 C13.7925455,6 12.1087273,7.93072727 11.5538182,8.67654545 L11.5538182,6 L7,6 L7,20 L11.5538182,20 L11.5538182,12.3636364 C11.5538182,12.3636364 14.9952727,7.57054545 16.4474545,11.0909091 C16.4474545,14.2332727 16.4474545,20 16.4474545,20 L21,20 L21,10.5525455 C21,8.43727273 19.5503636,6.67454545 17.5941818,6.16418182 Z" id="Path"></path>
                    <circle id="Oval" cx="2" cy="2" r="2"></circle>
                </g>
            </g>
        </g>
    </g>
</svg>