
<svg width="20px" height="22px" viewBox="0 0 20 22" version="1.1" xmlns="http://www.w3.org/2000/svg" xmlns:xlink="http://www.w3.org/1999/xlink">
    <g id="Desktop" stroke="none" stroke-width="1" fill="none" fill-rule="evenodd" opacity="0.98">
        <g id="OS-Staff---op-2" transform="translate(-1038.000000, -1063.000000)" fill="#EC1944" fill-rule="nonzero">
            <g id="OpenStack-Logo-Mark" transform="translate(1038.000000, 1063.000000)">
                <g id="Group" transform="translate(0.000000, 0.500000)">
                    <path d="M18.0702703,0 L1.85405405,0 C0.833111688,0.00319496013 0.00621198077,0.893105765 0.00324324324,1.99184559 L0.00324324324,6.68641158 L4.50162162,6.68641158 L4.50162162,5.91969064 C4.50162162,5.32467834 4.94982089,4.84232556 5.5027027,4.84232556 L14.4248649,4.84232556 C14.9777467,4.84232556 15.4259459,5.32467834 15.4259459,5.91969064 L15.4259459,6.68641158 L19.9275676,6.68641158 L19.9275676,1.99184559 C19.923994,0.890651415 19.0934994,-6.71574289e-06 18.0702703,3.30675565e-15 L18.0702703,0 Z" id="Path"></path>
                    <path d="M15.4227027,15.0644958 C15.4221069,15.6592423 14.9742564,16.1412196 14.4216216,16.1418608 L5.49945946,16.1418608 C4.94682464,16.1412196 4.49897421,15.6592423 4.49837838,15.0644958 L4.49837838,14.2977748 L0,14.2977748 L0,18.9911773 C0.00237510032,20.0903715 0.829447844,20.9809885 1.85081081,20.9841864 L18.067027,20.9841864 C19.0919423,20.9861172 19.9245863,20.0941899 19.9275676,18.9911773 L19.9275676,14.2977748 L15.4227027,14.2977748 L15.4227027,15.0644958 Z" id="Path"></path>
                    <rect id="Rectangle" x="0" y="8.07093042" width="4.49945946" height="4.84232556"></rect>
                    <rect id="Rectangle" x="15.4227027" y="8.07093042" width="4.49945946" height="4.84232556"></rect>
                </g>
            </g>
        </g>
    </g>
</svg>