
<svg width="19px" height="16px" viewBox="0 0 19 16" version="1.1" xmlns="http://www.w3.org/2000/svg" xmlns:xlink="http://www.w3.org/1999/xlink">
    <g id="Desktop" stroke="none" stroke-width="1" fill="none" fill-rule="evenodd">
        <g id="OS-Staff---op-2" transform="translate(-1112.000000, -1068.000000)" fill="#133E68" fill-rule="nonzero">
            <g id="social" transform="translate(1079.000000, 1063.000000)">
                <path d="M52,6.89415385 C51.2934375,7.21538462 50.5405625,7.42830769 49.755625,7.53169231 C50.563125,7.032 51.1794375,6.24676923 51.4691875,5.30030769 C50.7163125,5.76553846 49.8850625,6.09415385 48.9991875,6.27753846 C48.2843125,5.48861538 47.2654375,5 46.1539375,5 C43.9974375,5 42.2613125,6.81415385 42.2613125,9.03815385 C42.2613125,9.35815385 42.2874375,9.66584615 42.3515625,9.95876923 C39.11325,9.79507692 36.2478125,8.18646154 34.322875,5.736 C33.9868125,6.34030769 33.7896875,7.032 33.7896875,7.77661538 C33.7896875,9.17476923 34.484375,10.4141538 35.519875,11.1316923 C34.8940625,11.1193846 34.280125,10.9310769 33.76,10.6344615 C33.76,10.6467692 33.76,10.6627692 33.76,10.6787692 C33.76,12.6406154 35.1101875,14.2701538 36.88075,14.6455385 C36.5636875,14.7353846 36.218125,14.7784615 35.8595,14.7784615 C35.610125,14.7784615 35.358375,14.7636923 35.1220625,14.7095385 C35.62675,16.3083077 37.058875,17.4836923 38.76175,17.5218462 C37.4365,18.5963077 35.7538125,19.2436923 33.9321875,19.2436923 C33.61275,19.2436923 33.306375,19.2289231 33,19.1883077 C34.7254375,20.3415385 36.7703125,21 38.9755,21 C46.14325,21 50.062,14.8461538 50.062,9.512 C50.062,9.33353846 50.0560625,9.16123077 50.04775,8.99015385 C50.8208125,8.42153846 51.470375,7.71138462 52,6.89415385 Z" id="Path"></path>
            </g>
        </g>
    </g>
</svg>