<?xml version="1.0" encoding="utf-8"?>
<!-- Generator: Adobe Illustrator 25.4.1, SVG Export Plug-In . SVG Version: 6.00 Build 0)  -->
<svg version="1.1" id="Layer_1" xmlns="http://www.w3.org/2000/svg" xmlns:xlink="http://www.w3.org/1999/xlink" x="0px" y="0px"
	 viewBox="0 0 1317.7 270.7" style="enable-background:new 0 0 1317.7 270.7;" xml:space="preserve">
<style type="text/css">
	.st0{fill:#ED2F36;}
	.st1{fill:#333333;}
	.st2{fill:#FFFCFD;}
</style>
<g>
	<g>
		<g>
			<path class="st0" d="M302.7,119.2c0,4.2,1.9,6.3,5.7,6.3H323c3.5,0,5.2,2.2,5.2,6.6v34.7v4.4c0,2.9-0.7,5.5-2.1,7.7
				c-1.4,2.2-3.7,3.4-6.9,3.6h-14.5c-2-0.2-3.7-1.3-5.2-3.4c-1.5-2.1-2.1-4.4-2.1-7v-23h4.8v19.3c0,3,0.4,5.3,1.1,6.8
				c0.7,1.6,2.4,2.3,5.1,2.3h6.7c2.7,0,4.7-0.8,5.9-2.5c1.3-1.6,1.9-3.8,1.9-6.6l-0.2-30.9c0.1-4.3-1.8-6.5-5.7-6.6h-12.3
				c-4.7,0-7.1-3.1-7.1-9.3v-29v-4.4c0-2.9,0.7-5.5,2.1-7.7c1.4-2.2,3.7-3.4,6.9-3.6h14.5c2.6,0.2,4.4,1.3,5.6,3.4
				c1.2,2.1,1.7,4.4,1.6,7v23h-4.8V91.2c0-3-0.4-5.3-1.1-6.8c-0.7-1.5-2.4-2.3-5.1-2.3h-9.4c-1.6,0-2.9,0.8-3.8,2.5
				s-1.3,3.8-1.3,6.6l-0.1,23.8L302.7,119.2L302.7,119.2z M366.9,131v37.2v14.2h-5.5v-33.1v-27.6v-29v-4.4V77.4h5.2v37.5v4.4v6.3
				h20.8v-7.4v-7.7V91.2V77.4h4.6v33.1V132v34.7v15.6h-5.5v-44.8l0.2-6.4l-5.9-0.1L366.9,131L366.9,131z M455.9,171.1
				c0,3.1-1,5.7-2.9,7.8c-1.9,2.1-4.3,3.2-7.2,3.4H434c-3.2-0.2-5.5-1.4-6.8-3.7c-1.3-2.3-1.9-4.8-1.9-7.5v-4.4V92.7v-4.4
				c0-2.9,0.7-5.5,2.1-7.7c1.4-2.2,3.7-3.4,6.9-3.6h13.4c3.3,0.2,5.5,1.3,6.7,3.4c1.2,2.1,1.7,4.4,1.6,7v23L455.9,171.1z
				 M430.4,137.5v30.6c0,2.9,0.5,5.2,1.4,6.8c0.9,1.6,3,2.5,6.3,2.5h6.7c2.6,0,4.3-0.8,5.1-2.3c0.7-1.5,1.2-3.8,1.4-6.7V149v-21.1
				v-17.5V91.2c0-3-0.4-5.3-1.1-6.8c-0.7-1.5-2.4-2.3-5.1-2.3h-9.4c-1.6,0-2.9,0.8-3.8,2.5s-1.3,3.8-1.3,6.6l-0.1,23.8v4.4v9.3
				L430.4,137.5L430.4,137.5z M489,182.4V77.5h30l-0.1,4.8h-24.6v43.4H517v5.4h-22.7v46.1h25.4l0.2,5.2L489,182.4L489,182.4z
				 M552.8,182.4l-0.1-105.3h5.5v99.8h25.4l0.2,5.5L552.8,182.4L552.8,182.4z M614.9,182.4l15.9-105.1h5.9L654,182.4h-6.4l-6.4-35.8
				h-14.1l-6.4,35.8H614.9L614.9,182.4z M626.9,141.1h13.9l-7.2-53.4L626.9,141.1z M690.2,137.5v30.6c0,2.9,0.5,5.2,1.4,6.8
				c0.9,1.6,3,2.5,6.3,2.5h6.7c2.6,0,4.3-0.8,5.1-2.3c0.7-1.5,1.1-3.8,1.1-6.8V149h4.8v23c0.1,2.6-0.6,4.9-2.1,7
				c-1.5,2.1-3.6,3.2-6.3,3.4h-13.4c-3.2-0.2-5.5-1.4-6.8-3.7c-1.3-2.3-1.9-4.8-1.9-7.5v-4.4V92.7v-4.4c0-2.9,0.7-5.5,2.1-7.7
				c1.4-2.2,3.7-3.4,6.9-3.6h12.6c2.7,0.2,5,1.3,6.7,3.4c1.7,2.1,2.6,4.4,2.5,7v23H711V91.2c0-3-0.4-5.3-1.1-6.8
				c-0.7-1.5-2.4-2.3-5.1-2.3h-9.4c-1.6,0-2.9,0.8-3.8,2.5s-1.3,3.8-1.3,6.6l-0.1,23.8v4.4v9.3L690.2,137.5L690.2,137.5z
				 M748.7,182.4V77.5h30l-0.1,4.8h-24.6v43.4h22.7v5.4h-22.7v46.1h25.4l0.2,5.2L748.7,182.4L748.7,182.4z"/>
			<path class="st0" d="M707.2,183.9h-13.4c-3.8-0.2-6.5-1.7-8.1-4.4c-1.4-2.5-2.1-5.3-2.1-8.3V88.3c0-3.2,0.8-6,2.3-8.5
				c1.7-2.6,4.4-4,8.1-4.2l12.7,0l0.1,0c3.1,0.2,5.8,1.5,7.8,4c2,2.4,2.9,5.1,2.8,8l0,24.4h-7.8V91.2c0-2.8-0.3-4.9-1-6.2
				c-0.5-1-1.7-1.5-3.7-1.5h-9.4c-0.7,0-1.7,0.2-2.5,1.7c-0.8,1.4-1.2,3.4-1.2,5.8l-0.1,46.5h0v30.6c0,2.6,0.4,4.7,1.2,6.1
				c0.8,1.4,3.1,1.7,5,1.7h6.7c3,0,3.5-1.1,3.7-1.5c0.6-1.3,1-3.4,1-6.2v-20.8h7.8V172c0.1,2.8-0.7,5.5-2.3,7.8
				C713,182.3,710.5,183.6,707.2,183.9L707.2,183.9z M694,78.6c-2.7,0.2-4.5,1.1-5.7,2.9c-1.2,1.9-1.9,4.2-1.9,6.9v82.9
				c0,2.5,0.6,4.7,1.8,6.8c1,1.8,2.9,2.8,5.6,2.9l13.3,0c2.3-0.2,3.9-1.1,5.1-2.8c1.3-1.8,1.9-3.8,1.8-6.1l0-21.5h-1.8v17.8
				c0,3.3-0.4,5.7-1.2,7.5c-1,2.1-3.2,3.2-6.4,3.2h-6.7c-3.9,0-6.4-1.1-7.6-3.2c-1-1.9-1.6-4.4-1.6-7.6l0-53.3l0.1-23.8
				c0-3,0.5-5.4,1.5-7.3c1.5-2.7,3.6-3.2,5.1-3.2h9.4c3.3,0,5.4,1.1,6.4,3.2c0.8,1.8,1.2,4.2,1.2,7.5v17.8h1.8V87.5
				c0.1-2.2-0.6-4.2-2.1-6c-1.5-1.8-3.3-2.7-5.6-2.9H694z M585.3,183.9h-34l-0.1-108.3h8.5v99.8H585L585.3,183.9z M554.3,180.9
				l27.9,0l-0.1-2.5h-25.5V78.6h-2.5L554.3,180.9z M393.5,183.9h-8.5v-46.3l0.2-5l-4.4-0.1l-12.4,0v51.4h-8.5v-108h8.2V124h17.8
				V75.9h7.6V183.9z M388.1,180.9h2.5v-102h-1.6V127h-23.8V78.9h-2.2v102h2.5v-51.4l15.4,0l7.5,0.2l-0.3,7.9L388.1,180.9z
				 M655.7,183.9h-9.4l-6.4-35.8h-11.6l-6.4,35.8h-8.8l16.4-108.1h8.5L655.7,183.9z M648.9,180.9h3.3L635.5,78.7h-3.4l-15.5,102.1
				h2.8l6.4-35.8h16.6L648.9,180.9z M434,183.9c-3.8-0.2-6.5-1.7-8.1-4.4c-1.4-2.5-2.1-5.3-2.1-8.3V88.3c0-3.2,0.8-6,2.3-8.5
				c1.7-2.6,4.4-4,8.1-4.2l13.5,0c3.9,0.2,6.6,1.6,8,4.2c1.3,2.3,1.9,4.9,1.8,7.8l0,22.9l-0.1,60.7c0,3.5-1.1,6.4-3.3,8.8
				c-2.2,2.4-5,3.7-8.3,3.9L434,183.9z M447.6,78.6l-13.3,0c-2.7,0.2-4.5,1.1-5.7,2.9c-1.2,1.9-1.9,4.2-1.9,6.9v82.9
				c0,2.5,0.6,4.7,1.8,6.8c1,1.8,2.9,2.8,5.6,2.9l11.7,0c2.4-0.2,4.5-1.1,6.1-2.9c1.7-1.8,2.5-4,2.5-6.8v0l0.1-60.7v-23
				c0.1-2.3-0.4-4.4-1.4-6.2C452.1,79.6,450.3,78.7,447.6,78.6z M304.7,183.9l-0.1,0c-2.5-0.2-4.6-1.6-6.3-4.1
				c-1.6-2.4-2.4-5-2.3-7.9l0-24.4h7.8v20.8c0,2.8,0.3,4.9,1,6.2c0.2,0.4,0.7,1.5,3.7,1.5h6.7c2.2,0,3.8-0.6,4.8-1.9
				c1.1-1.4,1.6-3.3,1.6-5.6l-0.2-30.9c0.1-1.9-0.3-3.2-1-4c-0.7-0.7-1.8-1.1-3.2-1.1l-12.3,0c-3.9,0-8.6-1.9-8.6-10.8V88.3
				c0-3.2,0.8-6,2.3-8.5c1.7-2.6,4.4-4,8.1-4.2l14.6,0l0.1,0c3.1,0.2,5.4,1.6,6.8,4.2c1.3,2.3,1.9,4.9,1.8,7.8l0,24.4H322V91.2
				c0-2.8-0.3-4.9-1-6.2c-0.5-1-1.7-1.5-3.7-1.5h-9.4c-0.7,0-1.7,0.2-2.5,1.7c-0.8,1.4-1.2,3.4-1.2,5.8l-0.1,28.2h0
				c0,3.4,1.3,4.8,4.2,4.8H323c2.5,0,6.7,1,6.7,8.1v39.1c0,3.2-0.8,6-2.3,8.5c-1.7,2.6-4.4,4-8.1,4.2L304.7,183.9z M304.7,180.9
				h14.4c2.7-0.2,4.5-1.1,5.7-2.9c1.2-1.9,1.9-4.2,1.9-6.9V132c0-4.5-1.9-5.1-3.7-5.1h-14.5c-4.7,0-7.2-2.8-7.2-7.8l0-4.4l0.1-23.8
				c0-3,0.5-5.4,1.5-7.3c1.5-2.7,3.6-3.2,5.1-3.2h9.4c3.3,0,5.4,1.1,6.4,3.2c0.8,1.8,1.2,4.2,1.2,7.5v17.8h1.8V87.5
				c0.1-2.3-0.4-4.4-1.4-6.2c-0.9-1.7-2.3-2.5-4.4-2.7h-14.4c-2.7,0.2-4.5,1.1-5.7,2.9c-1.2,1.9-1.9,4.2-1.9,6.9v33.4
				c0,6.9,3,7.8,5.6,7.8H317c2.3,0.1,4.1,0.7,5.4,2.1c1.3,1.4,1.9,3.4,1.9,6.1l0.2,30.8c0,3.1-0.8,5.6-2.2,7.5c-1.6,2-4,3-7.1,3
				h-6.7c-3.3,0-5.4-1.1-6.4-3.2c-0.8-1.8-1.2-4.2-1.2-7.5v-17.8h-1.8V172c-0.1,2.3,0.5,4.3,1.8,6.1
				C301.9,179.8,303.2,180.7,304.7,180.9z M781.3,183.9h-34V76h33l-0.1,7.8h-24.6v40.4h22.7v8.4h-22.7v43.1h25.4L781.3,183.9z
				 M750.2,79v101.9l27.9,0l-0.1-2.2h-25.5v-49.1h22.7v-2.4h-22.7V80.8h24.6l0-1.8H750.2z M521.5,183.9h-34V76h33l-0.1,7.8h-24.6
				v40.4h22.7v8.4h-22.7v43.1h25.4L521.5,183.9z M490.5,79v101.9l27.9,0l-0.1-2.2h-25.5v-49.1h22.7v-2.4h-22.7V80.8h24.6l0-1.8
				H490.5z M444.8,178.9h-6.7c-3.9,0-6.4-1.1-7.6-3.2c-1-1.9-1.6-4.4-1.6-7.6l0-53.3L429,91c0-3,0.5-5.4,1.5-7.3
				c1.5-2.7,3.6-3.2,5.1-3.2h9.4c3.3,0,5.4,1.1,6.4,3.2c0.8,1.8,1.2,4.2,1.2,7.5v77.2c-0.2,3.2-0.7,5.6-1.5,7.3
				C450.2,177.9,448.1,178.9,444.8,178.9z M435.6,83.5c-0.7,0-1.7,0.2-2.5,1.7c-0.8,1.4-1.2,3.4-1.2,5.8l-0.1,46.5h0v30.6
				c0,2.6,0.4,4.7,1.2,6.1c0.8,1.4,3.1,1.7,5,1.7h6.7c3,0,3.5-1.1,3.7-1.5c0.6-1.4,1.1-3.4,1.2-6.2l0-77.2c0-2.8-0.3-4.9-1-6.2
				c-0.5-1-1.7-1.5-3.7-1.5H435.6z M642.5,142.6h-17.3l6.8-55.1l3,0L642.5,142.6z M628.6,139.6h10.5l-5.5-40.3L628.6,139.6z"/>
		</g>
		<path class="st1" d="M852.2,171.6l8.5-62.8l4.6-31.7h6l-16.5,105.3h-6L836.4,88l-13.6,94.3h-5.8L801.3,77.2h5.7l4.5,32l8.6,62.7
			l8.5-62.8l4.7-31.9l6.2-0.1l4,31.9L852.2,171.6z M905.7,182.4l-0.1-105.3h5.5v105.3H905.7z M944.3,182.4V77.2h16.9
			c3.4,0,6,0.9,7.8,2.8c1.8,1.9,3.2,5.2,4.2,10c1.1,4.8,1.6,10.1,1.6,15.9c0,7.5-0.9,13.8-2.6,18.9c-1.8,5.1-4.5,8.3-8.1,9.7
			c1.3,1.8,2.3,3.5,3,5.3c1.5,3.7,2.8,8.4,4.2,13.9l6.7,28.7h-6.4l-5.1-21.9c-1.5-6.3-2.7-11.2-3.7-14.5s-1.8-5.7-2.6-7
			c-0.8-1.3-1.5-2.3-2.3-2.8c-0.5-0.3-1.5-0.5-2.8-0.5h-5.9v46.8L944.3,182.4L944.3,182.4z M949.4,131.5h9.4c3.1-0.5,5.2-1.9,6.4-4
			c1.2-2.1,2.2-5,3-8.6c0.8-3.6,1.4-8.1,1.6-13.5c0-7.3-0.7-13.2-2-17.6c-1.3-4.4-4.5-6.9-9.6-7.5h-8.8L949.4,131.5L949.4,131.5z
			 M1008.3,182.4V77.5h30l-0.1,4.8h-24.6v43.4h22.7v5.4h-22.7v46.1h25.4l0.2,5.2L1008.3,182.4L1008.3,182.4z M1072.1,182.4
			L1072,77.1h5.5v99.8h25.4l0.2,5.5L1072.1,182.4L1072.1,182.4z M1134.6,182.4V77.5h30l-0.1,4.8h-24.6v43.4h22.7v5.4h-22.7v46.1
			h25.4l0.2,5.2L1134.6,182.4L1134.6,182.4z M1203.8,119.2c0,4.2,1.9,6.3,5.7,6.3h14.5c3.5,0,5.2,2.2,5.2,6.6v34.7v4.4
			c0,2.9-0.7,5.5-2.1,7.7c-1.4,2.2-3.7,3.4-6.9,3.6h-14.5c-2-0.2-3.7-1.3-5.2-3.4c-1.5-2.1-2.1-4.4-2.1-7v-23h4.8v19.3
			c0,3,0.4,5.3,1.1,6.8c0.7,1.6,2.4,2.3,5.1,2.3h6.7c2.7,0,4.7-0.8,5.9-2.5c1.3-1.6,1.9-3.8,1.9-6.6l-0.2-30.9
			c0.1-4.3-1.8-6.5-5.7-6.6h-12.3c-4.7,0-7.1-3.1-7.1-9.3v-29v-4.4c0-2.9,0.7-5.5,2.1-7.7c1.4-2.2,3.7-3.4,6.9-3.6h14.5
			c2.6,0.2,4.4,1.3,5.6,3.4c1.2,2.1,1.7,4.4,1.6,7v23h-4.8V91.2c0-3-0.4-5.3-1.1-6.8c-0.7-1.5-2.4-2.3-5.1-2.3h-9.4
			c-1.6,0-2.9,0.8-3.8,2.5s-1.3,3.8-1.3,6.6l-0.1,23.8L1203.8,119.2L1203.8,119.2z M1267.6,119.2c0,4.2,1.9,6.3,5.7,6.3h14.5
			c3.5,0,5.2,2.2,5.2,6.6v34.7v4.4c0,2.9-0.7,5.5-2.1,7.7c-1.4,2.2-3.7,3.4-6.9,3.6h-14.5c-2-0.2-3.7-1.3-5.2-3.4
			c-1.5-2.1-2.1-4.4-2.1-7v-23h4.8v19.3c0,3,0.4,5.3,1.1,6.8c0.7,1.6,2.4,2.3,5.1,2.3h6.7c2.7,0,4.7-0.8,5.9-2.5
			c1.3-1.6,1.9-3.8,1.9-6.6l-0.2-30.9c0.1-4.3-1.8-6.5-5.7-6.6h-12.3c-4.7,0-7.1-3.1-7.1-9.3v-29v-4.4c0-2.9,0.7-5.5,2.1-7.7
			c1.4-2.2,3.7-3.4,6.9-3.6h14.5c2.6,0.2,4.4,1.3,5.6,3.4c1.2,2.1,1.7,4.4,1.6,7v23h-4.8V91.2c0-3-0.4-5.3-1.1-6.8
			c-0.7-1.5-2.4-2.3-5.1-2.3h-9.4c-1.6,0-2.9,0.8-3.8,2.5s-1.3,3.8-1.3,6.6l-0.1,23.8L1267.6,119.2L1267.6,119.2z"/>
	</g>
	<g>
		<path class="st0" d="M245.8,135.8c0,60.6-49.1,109.8-109.8,109.8c-60.6,0-109.8-49.1-109.8-109.8C26.3,75.2,75.4,26.1,136,26.1
			C196.7,26.1,245.8,75.2,245.8,135.8z"/>
		<g>
			<path class="st2" d="M182.3,175c-1.2,0-2.5-0.4-3.6-1.2c-40.4-31.9-83.2-4.6-85-3.4c-2.7,1.7-6.2,1-8-1.6c-1.7-2.6-1-6.2,1.6-7.9
				c0.5-0.3,51.4-33.1,98.4,4c2.5,2,2.9,5.6,1,8.1C185.7,174.2,184,175,182.3,175L182.3,175z"/>
			<path class="st2" d="M170,198.2c-1.2,0-2.5-0.4-3.6-1.2c-28.7-22.6-59.2-3.2-60.5-2.4c-2.7,1.7-6.2,1-8-1.7
				c-1.7-2.6-1-6.2,1.6-7.9c0.4-0.3,38.6-24.9,73.9,3c2.5,2,2.9,5.6,1,8.1C173.4,197.4,171.7,198.2,170,198.2L170,198.2z"/>
			<path class="st2" d="M157.8,218.1c-1.2,0-2.5-0.4-3.6-1.2c-17.2-13.5-35.8-1.6-36-1.4c-2.6,1.7-6.2,1-8-1.6c-1.7-2.6-1-6.2,1.6-8
				c8.8-5.8,30.5-12.9,49.4,2c2.5,2,2.9,5.6,1,8.1C161.2,217.3,159.5,218.1,157.8,218.1L157.8,218.1z"/>
		</g>
		<g>
			<path class="st2" d="M66.2,136.3c-4.5,0-9.2-0.1-14.2-0.3c-2.9-0.1-5.1-2.5-5-5.4c0.1-2.9,2.4-5.1,5.4-5
				c24,0.9,40.4-0.6,51.3-2.5c-19.5-3.3-44.2-10.1-49-23.5c-2.5-6.9,0.2-14.1,7.8-21.4c0.2-0.2,0.5-0.4,0.8-0.6
				c2.7-1.7,27.1-15.3,66.3,38.1c2.6,0.4,4.6,2.7,4.5,5.4c-0.1,2.9-2.6,5.1-5.4,5l-0.3,0C123.1,129.1,106.8,136.3,66.2,136.3
				L66.2,136.3z M69.1,86.2c-2.9,2.9-5.8,6.7-4.7,9.9c3.2,8.8,28.7,15.3,50.9,18.2C87.9,80.4,71.6,85.2,69.1,86.2L69.1,86.2z"/>
			<path class="st2" d="M56.3,132.8l-20.8-1.4l0.2-2.6l20.8,1.4L56.3,132.8z M208.7,137.4c-40.6,0-56.9-7.2-62.1-10.3l-0.3,0
				c-2.9,0.1-5.3-2.1-5.4-5c-0.1-2.7,1.9-5,4.5-5.4c39.2-53.4,63.6-39.8,66.3-38.1c0.3,0.2,0.5,0.4,0.8,0.6
				c7.6,7.3,10.3,14.5,7.8,21.4c-4.8,13.4-29.4,20.2-48.9,23.5c11,2,27.4,3.4,51.2,2.6c3-0.2,5.3,2.1,5.4,5c0.1,2.9-2.1,5.3-5,5.4
				C217.8,137.3,213.1,137.4,208.7,137.4L208.7,137.4z M200.8,86.5c-7.1,0-21.2,4.1-41.3,29c22.1-2.9,47.8-9.4,50.9-18.2
				c1.1-3.2-1.8-7.1-4.7-9.9C205.1,87,203.4,86.5,200.8,86.5L200.8,86.5z"/>
			<path class="st2" d="M218.5,133.9l-0.2-2.6l20.8-1.4l0.2,2.6L218.5,133.9z M136.6,133c-0.4,0-0.7,0-1.1-0.1
				c-2.8-0.6-4.6-3.3-4-6.2c1.2-5.8,0.2-8.3-0.4-8.8c-2.4-1.1-3.6-3.8-2.8-6.4c0.9-2.7,3.9-4.2,6.6-3.3c1.1,0.4,10.3,3.9,6.8,20.7
				C141.2,131.3,139,133,136.6,133L136.6,133z"/>
		</g>
	</g>
</g>
</svg>
