<?xml version="1.0" encoding="utf-8"?>
<!-- Generator: Adobe Illustrator 25.4.1, SVG Export Plug-In . SVG Version: 6.00 Build 0)  -->
<svg version="1.1" id="supported__x5F__black_x26_orange"
	 xmlns="http://www.w3.org/2000/svg" xmlns:xlink="http://www.w3.org/1999/xlink" x="0px" y="0px" viewBox="0 0 595.3 209.6"
	 style="enable-background:new 0 0 595.3 209.6;" xml:space="preserve">
<style type="text/css">
	.st0{fill:#E95420;}
	.st1{fill:#FFFFFF;}
	.st2{fill:#888888;}
</style>
<g>
	<g>
		<g>
			<g>
				<circle class="st0" cx="559.7" cy="35.6" r="35.6"/>
				<path class="st1" d="M535.4,30.9c-2.6,0-4.8,2.1-4.8,4.8c0,2.6,2.1,4.8,4.8,4.8c2.6,0,4.8-2.1,4.8-4.8
					C540.2,33,538.1,30.9,535.4,30.9z M569.4,52.5c-2.3,1.3-3.1,4.2-1.7,6.5c1.3,2.3,4.2,3.1,6.5,1.7c2.3-1.3,3.1-4.2,1.7-6.5
					C574.6,52,571.7,51.2,569.4,52.5z M545.8,35.6c0-4.7,2.3-8.9,5.9-11.4l-3.5-5.8c-4.2,2.8-7.3,7-8.5,12c1.5,1.2,2.5,3.1,2.5,5.2
					c0,2.1-1,4-2.5,5.2c1.3,5,4.4,9.2,8.5,12l3.5-5.8C548.1,44.5,545.8,40.3,545.8,35.6z M559.7,21.7c7.3,0,13.2,5.6,13.8,12.7
					l6.8-0.1c-0.3-5.2-2.6-9.9-6.1-13.4c-1.8,0.7-3.9,0.6-5.7-0.5c-1.8-1-2.9-2.8-3.3-4.7c-1.8-0.5-3.6-0.8-5.5-0.8
					c-3.3,0-6.4,0.8-9.2,2.1l3.3,5.9C555.6,22.2,557.6,21.7,559.7,21.7z M559.7,49.5c-2.1,0-4.1-0.5-5.9-1.3l-3.3,5.9
					c2.8,1.4,5.9,2.1,9.2,2.1c1.9,0,3.8-0.3,5.5-0.8c0.3-1.9,1.4-3.7,3.3-4.7c1.8-1,3.9-1.1,5.7-0.5c3.5-3.5,5.8-8.2,6.1-13.4
					l-6.8-0.1C572.9,44,566.9,49.5,559.7,49.5z M569.4,18.8c2.3,1.3,5.2,0.5,6.5-1.7c1.3-2.3,0.5-5.2-1.7-6.5
					c-2.3-1.3-5.2-0.5-6.5,1.7C566.3,14.5,567.1,17.5,569.4,18.8z"/>
			</g>
			<g>
				<path d="M71.3,129.1c-3.6,0.9-8.4,1.9-14.3,2.9c-5.9,1-12.8,1.5-20.6,1.5c-6.8,0-12.5-1-17.1-3c-4.6-2-8.4-4.8-11.2-8.4
					c-2.8-3.6-4.9-7.9-6.1-12.8C0.6,104.4,0,99,0,93V43.4h15.8v46.1c0,10.7,1.7,18.4,5.1,23.1c3.4,4.6,9.1,7,17.1,7
					c1.7,0,3.4-0.1,5.3-0.2c1.8-0.1,3.5-0.3,5.1-0.4c1.6-0.2,3-0.3,4.3-0.5c1.3-0.2,2.2-0.4,2.8-0.6V43.4h15.8L71.3,129.1
					L71.3,129.1z"/>
				<path d="M109.8,47.3c1.9-1.2,4.8-2.5,8.7-3.9c3.9-1.4,8.4-2,13.5-2c6.3,0,12,1.1,16.9,3.4c4.9,2.3,9.1,5.4,12.5,9.5
					c3.4,4.1,6,8.9,7.7,14.6c1.8,5.7,2.6,11.9,2.6,18.7c0,7.1-1,13.5-3.1,19.3c-2.1,5.7-5.1,10.5-8.9,14.5c-3.8,4-8.5,7-13.9,9.2
					c-5.4,2.1-11.5,3.2-18.3,3.2c-7.4,0-13.9-0.5-19.5-1.5c-5.7-1-10.3-2-13.9-3.1V2.7L109.8,0L109.8,47.3L109.8,47.3L109.8,47.3z
					 M109.8,117.9c1.6,0.5,3.8,0.9,6.7,1.3c2.9,0.4,6.5,0.6,10.8,0.6c8.5,0,15.3-2.8,20.4-8.4c5.1-5.6,7.6-13.5,7.6-23.8
					c0-4.5-0.5-8.8-1.4-12.7c-0.9-4-2.4-7.4-4.4-10.3c-2-2.9-4.7-5.1-7.9-6.8c-3.2-1.6-7.1-2.5-11.6-2.5c-4.3,0-8.3,0.7-11.9,2.2
					c-3.6,1.5-6.4,3-8.3,4.6L109.8,117.9L109.8,117.9z"/>
				<path d="M259.7,129.1c-3.6,0.9-8.4,1.9-14.3,2.9c-5.9,1-12.8,1.5-20.6,1.5c-6.8,0-12.5-1-17.1-3c-4.6-2-8.4-4.8-11.2-8.4
					c-2.8-3.6-4.9-7.9-6.1-12.8c-1.2-4.9-1.9-10.4-1.9-16.4V43.4h15.8v46.1c0,10.7,1.7,18.4,5.1,23.1c3.4,4.6,9.1,7,17.1,7
					c1.7,0,3.4-0.1,5.3-0.2c1.8-0.1,3.5-0.3,5.1-0.4c1.6-0.2,3-0.3,4.3-0.5c1.3-0.2,2.2-0.4,2.8-0.6V43.4h15.8L259.7,129.1
					L259.7,129.1z"/>
				<path d="M282.5,46c3.6-0.9,8.4-1.9,14.4-2.9c6-1,12.9-1.5,20.7-1.5c7,0,12.8,1,17.5,3c4.6,2,8.3,4.8,11.1,8.3
					c2.8,3.6,4.7,7.8,5.9,12.8c1.1,5,1.7,10.5,1.7,16.5v49.5h-15.8V85.5c0-5.4-0.4-10.1-1.1-13.9c-0.7-3.8-1.9-7-3.6-9.3
					c-1.7-2.4-4-4.1-6.8-5.2c-2.8-1.1-6.3-1.6-10.5-1.6c-1.7,0-3.5,0.1-5.3,0.2c-1.8,0.1-3.5,0.3-5.2,0.4c-1.6,0.2-3.1,0.4-4.4,0.6
					c-1.3,0.2-2.2,0.4-2.8,0.5v74.5h-15.8V46L282.5,46z"/>
				<path d="M390.2,43.4h33.4v13.2h-33.4v40.7c0,4.4,0.3,8.1,1,10.9c0.7,2.9,1.7,5.1,3.1,6.8c1.4,1.6,3.1,2.8,5.1,3.5
					c2,0.7,4.4,1,7.1,1c4.9,0,8.7-0.5,11.5-1.6c2.8-1.1,4.8-1.8,5.8-2.3l3.4,12.9c-1.6,0.8-4.4,1.8-8.4,3.1c-4,1.2-8.6,1.9-13.7,1.9
					c-6,0-10.9-0.8-14.8-2.3c-3.9-1.5-7-3.8-9.4-6.9c-2.4-3.1-4-6.8-5-11.3c-1-4.5-1.4-9.6-1.4-15.5V18.8l15.8-2.7L390.2,43.4
					L390.2,43.4L390.2,43.4z"/>
				<path d="M509.4,129.1c-3.6,0.9-8.4,1.9-14.3,2.9c-5.9,1-12.8,1.5-20.6,1.5c-6.8,0-12.5-1-17.1-3c-4.6-2-8.4-4.8-11.2-8.4
					c-2.8-3.6-4.9-7.9-6.1-12.8c-1.2-4.9-1.9-10.4-1.9-16.4V43.4H454v46.1c0,10.7,1.7,18.4,5.1,23.1c3.4,4.6,9.1,7,17.1,7
					c1.7,0,3.4-0.1,5.3-0.2c1.8-0.1,3.5-0.3,5.1-0.4s3-0.3,4.3-0.5c1.3-0.2,2.2-0.4,2.8-0.6V43.4h15.8L509.4,129.1L509.4,129.1z"/>
			</g>
		</g>
	</g>
	<g>
		<path class="st2" d="M32.5,181.6c0,3.1-0.5,5.8-1.5,8.1c-1,2.3-2.3,4.2-4.1,5.7c-1.8,1.5-3.9,2.7-6.3,3.4c-2.4,0.8-5.1,1.1-8,1.1
			c-1.5,0-3-0.1-4.6-0.2s-3-0.4-4.2-0.7v-34.9c1.2-0.3,2.6-0.6,4.2-0.8c1.6-0.2,3.1-0.2,4.6-0.2c2.9,0,5.6,0.4,8,1.1
			c2.4,0.8,4.5,1.9,6.3,3.4c1.8,1.5,3.1,3.4,4.1,5.7C32,175.9,32.5,178.5,32.5,181.6z M7.3,196.6c0.2,0,0.7,0.1,1.6,0.2
			c0.9,0.1,2.2,0.2,4.1,0.2c2.6,0,4.9-0.4,6.8-1.1c2-0.7,3.6-1.7,4.9-3.1c1.3-1.3,2.3-2.9,3-4.8c0.7-1.9,1-4,1-6.4
			c0-2.4-0.3-4.5-1-6.4c-0.7-1.9-1.7-3.5-3-4.8c-1.3-1.3-3-2.3-4.9-3.1c-2-0.7-4.2-1.1-6.8-1.1c-1.9,0-3.2,0.1-4.1,0.2
			s-1.4,0.2-1.6,0.2V196.6z"/>
		<path class="st2" d="M37.9,186.2c0-2.4,0.3-4.4,1-6.2c0.7-1.8,1.6-3.2,2.7-4.4c1.1-1.2,2.4-2.1,3.8-2.6c1.4-0.6,2.9-0.9,4.4-0.9
			c3.3,0,5.9,1.1,7.9,3.2c2,2.2,3,5.5,3,10c0,0.3,0,0.6,0,0.8c0,0.3,0,0.5-0.1,0.8h-19c0.1,3.3,0.9,5.9,2.5,7.6
			c1.5,1.8,4,2.7,7.3,2.7c1.8,0,3.3-0.2,4.4-0.5c1.1-0.3,1.9-0.6,2.4-0.9l0.6,2.9c-0.5,0.3-1.4,0.6-2.7,1c-1.3,0.4-2.9,0.6-4.7,0.6
			c-2.4,0-4.4-0.3-6.1-1c-1.7-0.7-3-1.7-4.1-2.9c-1.1-1.3-1.9-2.7-2.4-4.5C38.1,190.2,37.9,188.3,37.9,186.2z M57,184.1
			c-0.1-2.8-0.7-5-2-6.6c-1.3-1.6-3-2.4-5.3-2.4c-1.2,0-2.3,0.2-3.3,0.7c-1,0.5-1.8,1.1-2.5,2c-0.7,0.8-1.3,1.8-1.7,2.8
			c-0.4,1.1-0.6,2.2-0.7,3.4H57L57,184.1z"/>
		<path class="st2" d="M73.7,200.2c-1.1,0-2.2-0.2-3-0.4c-0.9-0.3-1.6-0.7-2.1-1.2c-0.6-0.5-1-1.2-1.3-2.1c-0.3-0.9-0.4-1.9-0.4-3.2
			v-33.4l3.4-0.6v34c0,0.8,0.1,1.5,0.2,2c0.2,0.5,0.4,0.9,0.7,1.2c0.3,0.3,0.7,0.5,1.2,0.7c0.5,0.1,1.1,0.3,1.8,0.4L73.7,200.2z"/>
		<path class="st2" d="M83.6,164.6c0,0.8-0.2,1.4-0.7,1.9c-0.5,0.5-1.1,0.7-1.8,0.7s-1.3-0.2-1.8-0.7c-0.5-0.5-0.7-1.1-0.7-1.9
			c0-0.8,0.2-1.4,0.7-1.9c0.5-0.5,1.1-0.7,1.8-0.7c0.7,0,1.3,0.2,1.8,0.7C83.3,163.1,83.6,163.8,83.6,164.6z M82.8,199.7h-3.4v-27
			h3.4V199.7z"/>
		<path class="st2" d="M99.4,196.1c0.7-1.5,1.5-3.2,2.3-5.1c0.8-1.9,1.5-3.9,2.2-6c0.7-2.1,1.4-4.2,2-6.3c0.6-2.1,1.1-4.1,1.5-5.9
			h3.4c-0.6,2.5-1.3,4.9-2.1,7.3s-1.6,4.8-2.4,7.1c-0.9,2.3-1.8,4.5-2.7,6.6c-0.9,2.1-1.8,4.1-2.7,6h-3.2c-0.9-1.9-1.8-3.9-2.7-6
			c-0.9-2.1-1.8-4.3-2.7-6.6c-0.9-2.3-1.7-4.6-2.4-7.1c-0.8-2.4-1.5-4.8-2.1-7.3h3.6c0.4,1.8,0.9,3.8,1.5,5.9c0.6,2.1,1.3,4.2,2,6.3
			c0.7,2.1,1.5,4.1,2.2,6C97.9,192.9,98.6,194.6,99.4,196.1z"/>
		<path class="st2" d="M113.5,186.2c0-2.4,0.3-4.4,1-6.2c0.7-1.8,1.6-3.2,2.7-4.4c1.1-1.2,2.4-2.1,3.8-2.6c1.4-0.6,2.9-0.9,4.4-0.9
			c3.3,0,5.9,1.1,7.9,3.2c2,2.2,3,5.5,3,10c0,0.3,0,0.6,0,0.8c0,0.3,0,0.5-0.1,0.8h-19c0.1,3.3,0.9,5.9,2.5,7.6
			c1.5,1.8,4,2.7,7.3,2.7c1.8,0,3.3-0.2,4.4-0.5c1.1-0.3,1.9-0.6,2.4-0.9l0.6,2.9c-0.5,0.3-1.4,0.6-2.7,1c-1.3,0.4-2.9,0.6-4.7,0.6
			c-2.4,0-4.4-0.3-6.1-1c-1.7-0.7-3-1.7-4.1-2.9c-1.1-1.3-1.9-2.7-2.4-4.5C113.8,190.2,113.5,188.3,113.5,186.2z M132.7,184.1
			c-0.1-2.8-0.7-5-2-6.6c-1.3-1.6-3-2.4-5.3-2.4c-1.2,0-2.3,0.2-3.3,0.7c-1,0.5-1.8,1.1-2.5,2c-0.7,0.8-1.3,1.8-1.7,2.8
			c-0.4,1.1-0.6,2.2-0.7,3.4H132.7L132.7,184.1z"/>
		<path class="st2" d="M151.8,172.2c1.1,0,2.2,0.1,3.2,0.3c1,0.2,1.7,0.4,2.1,0.5l-0.7,2.9c-0.3-0.1-0.8-0.3-1.7-0.4s-2-0.2-3.4-0.2
			c-1.5,0-2.6,0.1-3.5,0.3s-1.5,0.4-1.8,0.5v23.7h-3.4V174c0.9-0.4,2.1-0.8,3.6-1.2C147.7,172.4,149.6,172.2,151.8,172.2z"/>
		<path class="st2" d="M159.2,186.2c0-2.4,0.3-4.4,1-6.2c0.7-1.8,1.6-3.2,2.7-4.4c1.1-1.2,2.4-2.1,3.8-2.6c1.4-0.6,2.9-0.9,4.4-0.9
			c3.3,0,5.9,1.1,7.9,3.2c2,2.2,3,5.5,3,10c0,0.3,0,0.6,0,0.8c0,0.3,0,0.5-0.1,0.8h-19c0.1,3.3,0.9,5.9,2.5,7.6
			c1.5,1.8,4,2.7,7.3,2.7c1.8,0,3.3-0.2,4.4-0.5s1.9-0.6,2.4-0.9l0.6,2.9c-0.5,0.3-1.4,0.6-2.7,1c-1.3,0.4-2.9,0.6-4.7,0.6
			c-2.4,0-4.4-0.3-6.1-1c-1.7-0.7-3-1.7-4.1-2.9c-1.1-1.3-1.9-2.7-2.4-4.5C159.5,190.2,159.2,188.3,159.2,186.2z M178.4,184.1
			c-0.1-2.8-0.7-5-2-6.6c-1.3-1.6-3-2.4-5.3-2.4c-1.2,0-2.3,0.2-3.3,0.7c-1,0.5-1.8,1.1-2.5,2c-0.7,0.8-1.3,1.8-1.7,2.8
			c-0.4,1.1-0.6,2.2-0.7,3.4H178.4L178.4,184.1z"/>
		<path class="st2" d="M210.2,198.9c-1,0.3-2.3,0.7-3.9,1c-1.6,0.3-3.6,0.5-6,0.5c-2,0-3.8-0.3-5.4-1c-1.6-0.6-3-1.6-4.2-2.8
			c-1.2-1.2-2.1-2.7-2.7-4.4c-0.6-1.7-1-3.7-1-5.9c0-2.1,0.3-3.9,0.8-5.7c0.5-1.7,1.3-3.2,2.4-4.5c1-1.3,2.3-2.2,3.8-2.9
			s3.2-1,5.2-1c1.8,0,3.3,0.3,4.6,0.8c1.3,0.5,2.3,1,2.8,1.4v-14.5l3.4-0.6V198.9z M206.8,177.6c-0.3-0.2-0.7-0.5-1.2-0.8
			c-0.5-0.3-1-0.5-1.6-0.8c-0.6-0.2-1.3-0.4-2-0.6s-1.5-0.2-2.3-0.2c-1.7,0-3.1,0.3-4.2,0.9c-1.1,0.6-2,1.4-2.7,2.4
			c-0.7,1-1.2,2.2-1.5,3.5c-0.3,1.3-0.5,2.8-0.5,4.3c0,3.6,0.9,6.3,2.7,8.2c1.8,1.9,4.1,2.8,7.1,2.8c1.7,0,3-0.1,4-0.2
			c1-0.2,1.8-0.3,2.3-0.5L206.8,177.6L206.8,177.6z"/>
		<path class="st2" d="M234.5,174.3c0.6-0.5,1.5-0.9,2.8-1.4c1.3-0.5,2.8-0.8,4.6-0.8c1.9,0,3.7,0.3,5.2,1c1.5,0.7,2.8,1.7,3.8,2.9
			c1,1.3,1.8,2.7,2.4,4.5c0.5,1.7,0.8,3.6,0.8,5.7c0,2.2-0.3,4.2-1,5.9c-0.6,1.7-1.5,3.2-2.7,4.4c-1.2,1.2-2.6,2.2-4.2,2.8
			c-1.6,0.6-3.4,1-5.4,1c-2.4,0-4.4-0.2-6-0.5c-1.6-0.3-2.9-0.6-3.9-1v-39.1l3.4-0.6L234.5,174.3L234.5,174.3z M234.5,196.6
			c0.5,0.2,1.3,0.3,2.3,0.5c1,0.2,2.4,0.2,4,0.2c2.9,0,5.3-0.9,7.1-2.8s2.7-4.6,2.7-8.2c0-1.5-0.2-2.9-0.5-4.3
			c-0.3-1.3-0.8-2.5-1.5-3.5c-0.7-1-1.6-1.8-2.7-2.4c-1.1-0.6-2.5-0.9-4.2-0.9c-0.8,0-1.6,0.1-2.3,0.2c-0.7,0.2-1.4,0.4-2,0.6
			s-1.2,0.5-1.6,0.8c-0.5,0.3-0.9,0.5-1.2,0.8L234.5,196.6L234.5,196.6z"/>
		<path class="st2" d="M267.7,200.3c-1.1-2.1-2.2-4.3-3.3-6.6c-1.1-2.3-2.1-4.6-3-7c-0.9-2.4-1.8-4.7-2.5-7c-0.8-2.4-1.4-4.7-2-6.9
			h3.6c0.4,1.7,0.9,3.5,1.5,5.4s1.3,3.9,2,6c0.7,2.1,1.6,4.2,2.5,6.3c0.9,2.2,1.9,4.3,3,6.4c0.8-2.1,1.5-4.2,2.1-6.1
			c0.6-1.9,1.2-3.8,1.7-5.7c0.5-1.9,1-3.8,1.5-5.8c0.5-2,1-4.1,1.5-6.4h3.4c-1.1,5.1-2.4,10-3.8,14.7c-1.4,4.8-3,9.1-4.6,13.1
			c-0.7,1.6-1.3,2.9-2,4.1c-0.7,1.1-1.5,2.1-2.3,2.8c-0.9,0.7-1.9,1.3-3,1.6c-1.1,0.3-2.5,0.5-4,0.5c-0.9,0-1.7-0.1-2.4-0.3
			c-0.7-0.2-1.2-0.4-1.3-0.5l0.7-2.8c0.1,0.1,0.5,0.3,1.2,0.4c0.6,0.2,1.3,0.3,2,0.3c1,0,1.9-0.1,2.6-0.3c0.8-0.2,1.5-0.6,2.1-1.1
			c0.6-0.5,1.2-1.2,1.7-2C266.8,202.5,267.3,201.5,267.7,200.3z"/>
		<path class="st2" d="M312.3,200.5c-2.3,0-4.5-0.4-6.5-1.3c-2-0.8-3.7-2.1-5.2-3.7c-1.5-1.6-2.6-3.6-3.5-5.9
			c-0.9-2.4-1.3-5-1.3-8.1s0.5-5.7,1.4-8.1c0.9-2.4,2.2-4.3,3.7-5.9c1.5-1.6,3.3-2.8,5.3-3.6s4.1-1.2,6.3-1.2c1.4,0,2.6,0.1,3.7,0.3
			s2.1,0.4,2.9,0.7c0.8,0.3,1.5,0.5,2.1,0.8c0.6,0.3,1,0.5,1.4,0.7l-1.1,3.1c-0.9-0.5-2-1-3.3-1.5c-1.3-0.5-3-0.8-5-0.8
			c-2.3,0-4.2,0.4-5.9,1.1c-1.7,0.8-3.1,1.8-4.3,3.2c-1.1,1.4-2,3-2.6,5c-0.6,1.9-0.9,4-0.9,6.4c0,2.4,0.3,4.6,0.9,6.5
			c0.6,1.9,1.4,3.6,2.5,4.9c1.1,1.4,2.5,2.4,4.1,3.1c1.6,0.7,3.5,1.1,5.6,1.1c2.3,0,4.2-0.2,5.8-0.7c1.5-0.4,2.7-0.9,3.5-1.3l1,3
			c-0.2,0.2-0.7,0.4-1.3,0.6c-0.6,0.2-1.3,0.5-2.2,0.7c-0.9,0.2-2,0.4-3.1,0.6C315.1,200.4,313.8,200.5,312.3,200.5z"/>
		<path class="st2" d="M336.9,172.1c1.8,0,3.3,0.3,4.5,0.8c1.2,0.5,2.2,1.2,3,2.1c0.8,0.9,1.3,1.9,1.7,3.2c0.3,1.2,0.5,2.5,0.5,4v17
			c-0.3,0.1-0.9,0.2-1.5,0.3c-0.7,0.1-1.4,0.3-2.3,0.4c-0.9,0.1-1.8,0.3-2.9,0.3c-1.1,0.1-2.1,0.1-3.3,0.1c-1.4,0-2.7-0.2-3.9-0.5
			c-1.2-0.3-2.2-0.8-3.1-1.5c-0.9-0.7-1.6-1.6-2.1-2.6s-0.8-2.4-0.8-3.9c0-1.5,0.3-2.7,0.8-3.8c0.6-1,1.3-1.9,2.4-2.6
			c1-0.7,2.2-1.2,3.6-1.5c1.4-0.3,2.9-0.5,4.5-0.5c0.5,0,1,0,1.5,0.1c0.5,0.1,1.1,0.1,1.6,0.2c0.5,0.1,0.9,0.2,1.3,0.3
			c0.4,0.1,0.6,0.2,0.8,0.2v-1.7c0-0.9-0.1-1.9-0.2-2.7c-0.1-0.9-0.4-1.7-0.9-2.4c-0.5-0.7-1.1-1.3-2-1.7c-0.9-0.4-2-0.7-3.4-0.7
			c-2,0-3.5,0.1-4.4,0.4s-1.7,0.5-2.1,0.7l-0.5-3c0.6-0.3,1.5-0.5,2.7-0.8C333.7,172.2,335.1,172.1,336.9,172.1z M337.2,197.3
			c1.3,0,2.5,0,3.5-0.1c1-0.1,1.8-0.2,2.5-0.3v-9.5c-0.4-0.2-1-0.4-1.8-0.5c-0.8-0.2-2-0.3-3.4-0.3c-0.8,0-1.7,0.1-2.6,0.2
			c-0.9,0.1-1.7,0.4-2.5,0.8c-0.8,0.4-1.4,0.9-1.9,1.6c-0.5,0.7-0.7,1.6-0.7,2.8c0,1,0.2,1.9,0.5,2.6c0.3,0.7,0.8,1.3,1.4,1.7
			c0.6,0.4,1.3,0.7,2.2,0.9C335.2,197.2,336.1,197.3,337.2,197.3z"/>
		<path class="st2" d="M354.4,173.7c1-0.3,2.4-0.6,4.1-0.9c1.7-0.3,3.8-0.5,6.3-0.5c2.1,0,3.8,0.3,5.1,0.9c1.4,0.6,2.5,1.4,3.3,2.5
			c0.8,1.1,1.4,2.4,1.8,3.9c0.3,1.5,0.5,3.2,0.5,5.1v15.1H372v-14c0-1.9-0.1-3.5-0.4-4.9s-0.7-2.4-1.3-3.2c-0.6-0.8-1.4-1.4-2.4-1.8
			c-1-0.4-2.2-0.5-3.7-0.5c-1.6,0-3,0.1-4.2,0.3c-1.2,0.2-1.9,0.3-2.3,0.5v23.7h-3.4L354.4,173.7L354.4,173.7L354.4,173.7z"/>
		<path class="st2" d="M406.3,186.3c0,2.1-0.3,4.1-0.9,5.8c-0.6,1.7-1.5,3.2-2.6,4.4c-1.1,1.2-2.4,2.2-3.9,2.8c-1.5,0.7-3.2,1-5,1
			s-3.5-0.3-5-1c-1.5-0.7-2.8-1.6-3.9-2.8c-1.1-1.2-2-2.7-2.6-4.4c-0.6-1.7-0.9-3.7-0.9-5.8c0-2.1,0.3-4.1,0.9-5.8
			c0.6-1.7,1.5-3.2,2.6-4.5c1.1-1.2,2.4-2.2,3.9-2.9s3.2-1,5-1s3.5,0.3,5,1c1.5,0.7,2.8,1.6,3.9,2.9c1.1,1.2,2,2.7,2.6,4.5
			C406,182.2,406.3,184.1,406.3,186.3z M402.7,186.3c0-3.4-0.8-6.1-2.4-8.1c-1.6-2-3.7-3-6.4-3c-2.7,0-4.8,1-6.4,3
			c-1.6,2-2.4,4.7-2.4,8.1c0,3.4,0.8,6.1,2.4,8c1.6,2,3.7,3,6.4,3c2.7,0,4.8-1,6.4-3C401.9,192.3,402.7,189.6,402.7,186.3z"/>
		<path class="st2" d="M412.8,173.7c1-0.3,2.4-0.6,4.1-0.9c1.7-0.3,3.8-0.5,6.3-0.5c2.1,0,3.8,0.3,5.1,0.9c1.4,0.6,2.5,1.4,3.3,2.5
			c0.8,1.1,1.4,2.4,1.8,3.9c0.3,1.5,0.5,3.2,0.5,5.1v15.1h-3.4v-14c0-1.9-0.1-3.5-0.4-4.9c-0.3-1.3-0.7-2.4-1.3-3.2
			c-0.6-0.8-1.4-1.4-2.4-1.8c-1-0.4-2.2-0.5-3.7-0.5c-1.6,0-3,0.1-4.2,0.3c-1.2,0.2-1.9,0.3-2.3,0.5v23.7h-3.4L412.8,173.7
			L412.8,173.7z"/>
		<path class="st2" d="M445.7,164.6c0,0.8-0.2,1.4-0.7,1.9c-0.5,0.5-1.1,0.7-1.8,0.7s-1.3-0.2-1.8-0.7c-0.5-0.5-0.7-1.1-0.7-1.9
			c0-0.8,0.2-1.4,0.7-1.9c0.5-0.5,1.1-0.7,1.8-0.7s1.3,0.2,1.8,0.7C445.5,163.1,445.7,163.8,445.7,164.6z M444.9,199.7h-3.4v-27h3.4
			V199.7z"/>
		<path class="st2" d="M464.1,200.3c-2.1,0-3.9-0.3-5.5-1c-1.6-0.7-2.9-1.6-4-2.9c-1.1-1.2-1.9-2.7-2.4-4.4
			c-0.6-1.7-0.8-3.6-0.8-5.7c0-2.1,0.3-4.1,0.9-5.8c0.6-1.7,1.4-3.2,2.5-4.5c1.1-1.3,2.4-2.2,3.9-2.9c1.5-0.7,3.3-1,5.2-1
			c1.5,0,2.8,0.1,4.1,0.4c1.3,0.2,2.3,0.6,3,0.9l-0.9,2.9c-0.7-0.3-1.5-0.6-2.4-0.8c-0.9-0.2-2-0.3-3.5-0.3c-3,0-5.3,1-6.8,2.9
			c-1.5,1.9-2.3,4.7-2.3,8.2c0,1.6,0.2,3.1,0.5,4.4c0.3,1.3,0.9,2.5,1.7,3.4c0.8,1,1.8,1.7,3,2.2s2.7,0.8,4.5,0.8
			c1.5,0,2.7-0.2,3.7-0.5c1-0.3,1.7-0.6,2.2-0.9l0.7,2.9c-0.6,0.3-1.6,0.7-3,1C467,200.1,465.6,200.3,464.1,200.3z"/>
		<path class="st2" d="M484.9,172.1c1.8,0,3.3,0.3,4.5,0.8c1.2,0.5,2.2,1.2,3,2.1c0.8,0.9,1.3,1.9,1.7,3.2c0.3,1.2,0.5,2.5,0.5,4v17
			c-0.3,0.1-0.9,0.2-1.5,0.3c-0.7,0.1-1.4,0.3-2.3,0.4c-0.9,0.1-1.8,0.3-2.9,0.3c-1.1,0.1-2.2,0.1-3.3,0.1c-1.4,0-2.7-0.2-3.9-0.5
			c-1.2-0.3-2.2-0.8-3.1-1.5c-0.9-0.7-1.6-1.6-2.1-2.6s-0.8-2.4-0.8-3.9c0-1.5,0.3-2.7,0.8-3.8c0.6-1,1.3-1.9,2.3-2.6
			c1-0.7,2.2-1.2,3.6-1.5c1.4-0.3,2.9-0.5,4.5-0.5c0.5,0,1,0,1.5,0.1c0.5,0.1,1.1,0.1,1.6,0.2c0.5,0.1,0.9,0.2,1.3,0.3
			c0.4,0.1,0.6,0.2,0.8,0.2v-1.7c0-0.9-0.1-1.9-0.2-2.7c-0.1-0.9-0.4-1.7-0.9-2.4c-0.5-0.7-1.1-1.3-2-1.7c-0.9-0.4-2-0.7-3.4-0.7
			c-2,0-3.5,0.1-4.4,0.4c-1,0.3-1.7,0.5-2.1,0.7l-0.5-3c0.6-0.3,1.5-0.5,2.7-0.8C481.7,172.2,483.2,172.1,484.9,172.1z M485.2,197.3
			c1.3,0,2.5,0,3.5-0.1c1-0.1,1.8-0.2,2.5-0.3v-9.5c-0.4-0.2-1-0.4-1.8-0.5c-0.8-0.2-2-0.3-3.4-0.3c-0.8,0-1.7,0.1-2.6,0.2
			c-0.9,0.1-1.7,0.4-2.5,0.8c-0.8,0.4-1.4,0.9-1.9,1.6c-0.5,0.7-0.7,1.6-0.7,2.8c0,1,0.2,1.9,0.5,2.6c0.3,0.7,0.8,1.3,1.4,1.7
			c0.6,0.4,1.3,0.7,2.2,0.9C483.2,197.2,484.2,197.3,485.2,197.3z"/>
		<path class="st2" d="M509.2,200.2c-1.1,0-2.2-0.2-3-0.4c-0.9-0.3-1.6-0.7-2.1-1.2c-0.6-0.5-1-1.2-1.3-2.1
			c-0.3-0.9-0.4-1.9-0.4-3.2v-33.4l3.4-0.6v34c0,0.8,0.1,1.5,0.2,2c0.2,0.5,0.4,0.9,0.7,1.2c0.3,0.3,0.7,0.5,1.2,0.7
			c0.5,0.1,1.1,0.3,1.8,0.4L509.2,200.2z"/>
	</g>
</g>
</svg>
