<?xml version="1.0" encoding="utf-8"?>
<!-- Generator: Adobe Illustrator 23.0.1, SVG Export Plug-In . SVG Version: 6.00 Build 0)  -->
<svg version="1.1" id="Layer_1" xmlns="http://www.w3.org/2000/svg" xmlns:xlink="http://www.w3.org/1999/xlink" x="0px" y="0px"
	 viewBox="0 0 787.9 410.8" style="enable-background:new 0 0 787.9 410.8;" xml:space="preserve">
<style type="text/css">
	.st0{fill:#B2D235;}
	.st1{fill:#606161;}
	.st2{fill:#2B93D1;}
	.st3{fill:#F15B40;}
</style>
<g>
	<path class="st0" d="M592.1,55.9c-0.4,0-8.8-1.3-20.1-1.3l0,0c-9.2,0-17.7,0.8-25.1,2.4c-29.2,6.4-45.3,30.9-67.5,64.8
		c-23.9,36.5-40.8,48-41,48.1l-11,7.3l13.7,1.8c0.6,0.1,14.3,1.9,29.8,1.9c11.8,0,21.6-1.1,28.9-3.1c21.6-6.1,40.7-40.4,43.1-44.8
		c1-1.6,13.8-22.7,22.8-34.8l0.1-0.1l0.1-0.1c14.6-21.9,29-33.1,29.2-33.3l5.7-4.4c1.3-1,0.8-3.1-0.9-3.3L592.1,55.9z"/>
	<path class="st1" d="M441.3,107.4l-4.8-7.6c-5.9-9.4-8.9-13.4-14.7-21c-15.5-20.3-37-23.4-48.4-23.4c-4.6,0-7.6,0.5-8,0.6l-2.9,0.5
		l-1.3,2.4l-6.6,12.4l-1.1,2.1l1.1,2.1l13.1,25.9l1.8,3.5l2,4h70.8L441.3,107.4z"/>
	<path class="st1" d="M482.9,172.2c-6.1-5.6-14.4-19.5-20-28.8c-1.9-3.2-3.5-5.9-4.7-7.8c-0.8-1.1-1.9-3-2.8-4.5l-1.7-2.8h-0.1
		l-3.2-5.1h-71.6l6.2,12.3l1.6,3.1h0l2.9,5.7l0,0.1l0,0.1c10.5,19.4,25.3,29.5,35.6,32.4c12.1,3.5,29,4.2,41.1,4.2
		c7.3,0,12.4-0.3,12.6-0.3c0,0,3.6-0.2,4.5-0.2c4.3-0.3,7.7-1,7.7-1L482.9,172.2z"/>
	<path class="st2" d="M361.8,54.6L361.8,54.6c-9.2,0-17.7,0.8-25.1,2.4c-29.2,6.4-45.3,30.9-67.5,64.8c-24.2,36.9-39.1,46.9-39.2,47
		l-10.8,7l13.3,2.1c0.6,0.1,16,2.5,32.4,2.5c9.9,0,18.3-0.9,24.7-2.7c21.6-5.9,40.7-40.3,43.1-44.8c1-1.7,13.8-22.7,22.8-34.8
		l0.1-0.1l0.1-0.1c14.6-21.9,29-33.1,29.1-33.3l7.8-6.5C392.6,58.3,381.5,54.3,361.8,54.6"/>
	<path class="st1" d="M231.1,107.4l-4.8-7.6c-6-9.4-8.9-13.4-14.7-21c-15.5-20.3-37-23.4-48.4-23.4c-4.6,0-7.6,0.5-8,0.6l-2.9,0.5
		l-1.3,2.4l-6.6,12.4l-1.1,2.1l1.1,2.1l13.1,25.9l1.8,3.5l2,4h70.8L231.1,107.4z"/>
	<path class="st1" d="M272.7,172.2c-6.1-5.6-14.4-19.5-19.9-28.8c-1.9-3.2-3.5-5.9-4.7-7.8c-0.8-1.1-1.9-3-2.8-4.5l-1.6-2.8h-0.1
		l-3.2-5.1h-71.6l6.2,12.3l1.6,3.1h0l2.9,5.7l0,0.1l0,0.1c10.6,19.4,25.3,29.5,35.6,32.4c12.1,3.5,29,4.2,41.1,4.2
		c7.3,0,12.4-0.3,12.6-0.3l12.7-1.4L272.7,172.2z"/>
	<path class="st3" d="M149.5,54.6L149.5,54.6c-9.2,0-17.7,0.8-25.1,2.4c-29.2,6.4-45.3,30.9-67.5,64.8c-24.2,36.9-39.1,46.9-39.2,47
		l-4.9,3.2c-2.1,1.4-1.4,4.5,1.1,4.9l6.3,1c0.7,0.1,16,2.5,32.4,2.5c9.9,0,18.3-0.9,24.7-2.7c21.6-5.9,40.7-40.3,43.1-44.8
		c1-1.7,13.8-22.7,22.8-34.8l0.1-0.1l0.1-0.1c14.6-21.9,29-33.1,29.1-33.3l7.8-6.8C180.4,57.9,169.3,54.3,149.5,54.6"/>
	<polygon class="st1" points="11.5,228.9 31.2,228.9 44.8,278.2 59.8,228.9 74.8,228.9 90,278.2 103.4,228.9 122.2,228.9 
		98.1,299.9 80.9,299.9 66.3,257 52.3,299.9 35.6,299.9 	"/>
	<path class="st1" d="M174.3,293.2c-1.9,2.3-4.8,4.4-8.8,6.2c-3.9,1.8-8.3,2.7-13.2,2.7c-2.9,0-5.8-0.5-8.7-1.4
		c-2.9-0.9-5.5-2.3-7.9-4.1c-2.4-1.9-4.3-4.3-5.8-7.2c-1.5-2.9-2.2-6.4-2.2-10.3c0-4,0.8-7.6,2.3-10.8c1.5-3.2,3.6-5.9,6.4-8
		c2.7-2.2,6-3.8,9.9-4.9c3.8-1.1,8.1-1.7,12.7-1.7c1.4,0,3,0,4.7,0.1c1.7,0,3.4,0.1,5,0.2c1.8,0.1,3.7,0.2,5.6,0.3v-1.7
		c0-3.5-1.4-6.3-4.2-8.3c-2.8-2-6.5-3-11.1-3c-5.1,0-9.1,0.7-12.1,2c-3,1.3-5.7,2.7-8,4.2l-8.2-12.1c1.4-1,3-2,4.8-3.1
		c1.8-1.1,3.9-2,6.4-2.9c2.4-0.9,5.2-1.6,8.4-2.1c3.2-0.6,6.9-0.8,11.1-0.8c4.5,0,8.7,0.6,12.3,1.9c3.7,1.3,6.9,3,9.5,5.3
		c2.6,2.3,4.6,5,6.1,8.2c1.4,3.2,2.1,6.6,2.1,10.4v47.7h-16.6L174.3,293.2z M174.3,267.8c-1.8-0.1-3.6-0.2-5.3-0.3
		c-1.4-0.1-2.9-0.2-4.5-0.2s-2.9-0.1-4-0.1c-5.8,0-9.8,1.1-12.1,3.4c-2.3,2.3-3.5,4.9-3.5,7.8c0,3,1.1,5.4,3.3,7.1
		c2.2,1.7,5.4,2.6,9.6,2.6c2.1,0,4.2-0.4,6.1-1.1c2-0.7,3.7-1.7,5.2-2.9c1.5-1.2,2.8-2.6,3.7-4.2c1-1.6,1.4-3.3,1.4-5.1L174.3,267.8
		L174.3,267.8z"/>
	<polygon class="st1" points="198.4,228.9 218.9,228.9 238,279.7 257.1,228.9 276.6,228.9 246.7,299.9 228.5,299.9 	"/>
	<path class="st1" d="M349.9,289.6c-0.3,0.3-1.1,1.1-2.5,2.5c-1.4,1.4-3.3,2.8-5.9,4.3s-5.9,2.9-9.8,4.1c-4,1.2-8.8,1.8-14.3,1.8
		c-5.6,0-10.8-1-15.4-2.9c-4.6-1.9-8.6-4.6-11.9-8c-3.3-3.4-5.8-7.4-7.6-12.2c-1.8-4.7-2.6-10-2.6-15.7c0-5.2,0.9-10.1,2.6-14.6
		c1.8-4.5,4.2-8.4,7.4-11.7c3.2-3.3,7-6,11.4-7.9c4.4-1.9,9.2-2.9,14.6-2.9c6.5,0,11.9,1.2,16.4,3.6c4.5,2.4,8.1,5.5,10.8,9.3
		c2.7,3.8,4.7,8.2,5.9,13c1.2,4.8,1.8,9.8,1.8,14.8v2.6h-53c0,2.6,0.6,5,1.8,7.1c1.1,2.1,2.7,3.9,4.5,5.5c1.9,1.5,4,2.7,6.4,3.5
		c2.4,0.8,4.7,1.2,7,1.2c3.4,0,6.4-0.3,9-1c2.6-0.7,4.8-1.4,6.6-2.3c1.8-0.9,3.3-1.8,4.5-2.7c1.2-1,2-1.7,2.6-2.4L349.9,289.6z
		 M332.5,256.9c0-1.8-0.4-3.6-1.1-5.4c-0.7-1.8-1.8-3.5-3.1-4.9c-1.4-1.5-3.1-2.7-5.2-3.6c-2.1-1-4.5-1.4-7.3-1.4
		c-2.9,0-5.5,0.5-7.8,1.4c-2.3,1-4.2,2.2-5.7,3.6c-1.5,1.5-2.7,3.1-3.5,4.9c-0.8,1.8-1.2,3.6-1.2,5.4H332.5z"/>
	<rect x="366.3" y="198.9" class="st1" width="6.8" height="101"/>
	<path class="st1" d="M441.6,299.9c-0.1-0.9-0.1-1.9-0.1-3c-0.1-1-0.2-2.2-0.2-3.6v-5c-1.8,2.6-3.8,4.8-6,6.6
		c-2.2,1.8-4.4,3.1-6.8,4.2c-2.4,1-4.7,1.7-7,2.1c-2.3,0.4-4.4,0.6-6.3,0.6c-2.9,0-5.9-0.3-8.8-0.9c-2.9-0.6-5.6-1.7-7.9-3.2
		c-2.3-1.6-4.2-3.7-5.7-6.4c-1.5-2.7-2.2-6.1-2.2-10.2c0-3.3,0.6-6.5,1.7-9.5c1.1-3,2.9-5.5,5.3-7.7c2.4-2.2,5.5-3.9,9.4-5.2
		c3.8-1.2,8.5-1.9,13.9-1.9c4.2,0,8,0.1,11.4,0.5c3.3,0.3,6.2,0.7,8.5,1.1v-3.9c0-3.8-0.5-7-1.4-9.6c-0.9-2.5-2.3-4.5-4.1-6.1
		c-1.8-1.5-4-2.6-6.7-3.2c-2.6-0.6-5.6-0.9-9.1-0.9c-5.8,0-10.3,0.8-13.7,2.5s-6,3.3-7.8,4.8l-3.6-4.7c1.9-1.8,5-3.7,9.3-5.8
		c4.3-2,9.5-3,15.7-3c9,0,15.9,1.9,20.8,5.8c4.9,3.8,7.3,10.2,7.3,19.1v32.1v5.7c0,1.8,0,3.3,0.2,4.6c0.1,1.6,0.2,3,0.3,4.2
		L441.6,299.9L441.6,299.9z M441,264.3c-2.1-0.5-4.8-0.9-8-1.3s-7.2-0.5-12.2-0.5c-5.1,0-9.2,0.6-12.3,1.9c-3,1.3-5.3,2.8-6.9,4.7
		c-1.6,1.9-2.6,3.9-3,6c-0.4,2.2-0.7,4.1-0.7,5.8c0,5,1.7,8.7,5.1,11c3.4,2.3,7.7,3.5,12.9,3.5c3.4,0,6.7-0.6,9.7-1.8
		c3-1.2,5.7-2.8,8-4.8c2.3-2,4.1-4.3,5.4-6.9c1.3-2.6,2-5.2,2-7.8L441,264.3L441,264.3z"/>
	<path class="st1" d="M468.5,198.9h6.8v43.8c0.9-1.5,2-3.1,3.4-4.8c1.4-1.7,3-3.2,5.1-4.6c2-1.4,4.4-2.6,7.2-3.5
		c2.8-0.9,6.1-1.4,9.9-1.4c5.3,0,10,0.9,13.9,2.8c3.9,1.9,7.2,4.4,9.8,7.7c2.6,3.3,4.5,7.2,5.7,11.7c1.3,4.5,1.9,9.4,1.9,14.6
		c0,5.9-1,11-3,15.6c-2,4.5-4.7,8.4-8.2,11.4c-3.5,3.1-7.6,5.4-12.3,7c-4.7,1.6-9.8,2.4-15.2,2.4c-5,0-9.8-0.4-14.3-1.3
		s-8.1-1.9-10.8-3.1L468.5,198.9L468.5,198.9z M475.1,292.6c1.2,0.4,3.3,1,6.3,1.7c3,0.7,7.1,1,12.3,1c4.5,0,8.5-0.6,12.3-1.9
		c3.8-1.2,7.1-3.1,9.9-5.7c2.8-2.5,5-5.7,6.6-9.5c1.6-3.8,2.3-8.2,2.3-13.2c0-4-0.5-7.9-1.4-11.6c-0.9-3.7-2.3-6.9-4.3-9.6
		c-2-2.7-4.5-4.9-7.6-6.5c-3.1-1.6-7-2.4-11.5-2.4c-4.2,0-7.9,0.9-11,2.7c-3.1,1.8-5.7,4.1-7.8,6.8c-2.1,2.7-3.6,5.7-4.6,9
		c-1,3.3-1.5,6.4-1.5,9.3L475.1,292.6L475.1,292.6z"/>
	<path class="st1" d="M549.8,286.2c2.9,2.9,6.3,5.2,10.1,6.7c3.8,1.6,8.3,2.4,13.4,2.4c2.8,0,5.5-0.3,8-0.8c2.5-0.5,4.7-1.4,6.7-2.4
		c1.9-1.1,3.4-2.4,4.5-4c1.1-1.6,1.7-3.5,1.7-5.8c0-2.5-0.5-4.6-1.5-6.2s-2.5-3-4.5-4c-2-1.1-4.4-2-7.4-2.7c-3-0.8-6.4-1.6-10.2-2.5
		c-3.2-0.7-6.2-1.5-8.9-2.5c-2.7-1-5-2.1-6.9-3.6c-1.9-1.4-3.4-3.2-4.5-5.4c-1.1-2.2-1.7-4.9-1.7-8.1c0-3.1,0.7-5.9,2.1-8.2
		s3.3-4.4,5.7-6c2.4-1.6,5.1-2.8,8.2-3.6c3.1-0.8,6.3-1.1,9.6-1.1c5.4,0,10.3,1,14.5,3c4.2,2,7.6,4.6,10.2,7.7l-4.7,4.2
		c-2.4-2.6-5.2-4.8-8.4-6.4c-3.2-1.6-7-2.4-11.4-2.4c-2.2,0-4.4,0.2-6.7,0.5c-2.2,0.4-4.2,1-6.1,2c-1.8,1-3.3,2.3-4.4,3.9
		c-1.1,1.7-1.7,3.9-1.7,6.6c0,2.2,0.6,4.1,1.9,5.6c1.2,1.5,2.9,2.8,4.9,3.8c2,1,4.3,1.9,7,2.5c2.6,0.7,5.2,1.3,7.9,1.9
		c2.8,0.6,5.7,1.4,8.5,2.3c2.9,0.9,5.5,2.1,7.9,3.6c2.4,1.5,4.3,3.3,5.8,5.6c1.5,2.3,2.2,5.1,2.2,8.5c0,3.5-0.8,6.6-2.4,9.1
		c-1.6,2.5-3.7,4.6-6.4,6.3c-2.6,1.7-5.6,2.9-8.9,3.7c-3.3,0.8-6.7,1.2-10,1.2c-6.6,0-12.1-1-16.7-2.9c-4.6-1.9-8.5-4.5-11.7-7.7
		L549.8,286.2z"/>
	<g>
		<path class="st1" d="M61.4,323.7h6.2c7.6,0,11.7,4.4,11.7,12.3c0,7.9-4.1,12.5-11.6,12.5h-6.4V323.7z M67.3,345.9
			c5.8,0,8.7-3.7,8.7-9.9c0-6.2-2.9-9.7-8.7-9.7h-2.8v19.6L67.3,345.9L67.3,345.9z"/>
		<path class="st1" d="M87.6,330.1h2.6l0.3,3.3h0.1c1.2-2.3,3.1-3.8,5.2-3.8c0.8,0,1.4,0.1,2,0.4l-0.6,2.7c-0.6-0.2-1-0.3-1.8-0.3
			c-1.6,0-3.4,1.1-4.6,4.2v11.8h-3.1L87.6,330.1L87.6,330.1z"/>
		<path class="st1" d="M110.6,329.7c4.7,0,7.3,3.4,7.3,8.6c0,0.6,0,1.2-0.1,1.7h-12.4c0.2,4,2.6,6.5,6.1,6.5c1.7,0,3.2-0.6,4.6-1.4
			l1.1,2c-1.6,1-3.6,1.9-6.1,1.9c-4.9,0-8.8-3.6-8.8-9.6C102.4,333.3,106.4,329.7,110.6,329.7z M115.2,338c0-3.7-1.7-5.8-4.5-5.8
			c-2.6,0-4.9,2.1-5.3,5.8H115.2z"/>
		<path class="st1" d="M135.7,336.9c0-2.4-0.8-4.6-3.8-4.6c-2.1,0-4,1-5.5,2l-1.2-2.1c1.7-1.1,4.3-2.4,7.2-2.4c4.5,0,6.4,3,6.4,7.5
			v11.2h-2.6l-0.3-2.2h-0.1c-1.8,1.4-3.8,2.6-6.1,2.6c-3.1,0-5.4-1.9-5.4-5.2C124.4,339.7,127.9,337.7,135.7,336.9z M130.7,346.5
			c1.8,0,3.3-0.9,5-2.5v-5.1c-6.2,0.8-8.2,2.2-8.2,4.6C127.5,345.6,128.8,346.5,130.7,346.5z"/>
		<path class="st1" d="M148,330.1h2.6l0.3,2.6h0.1c1.6-1.7,3.5-3.1,5.7-3.1c2.8,0,4.3,1.3,5.1,3.5c1.9-2.1,3.8-3.5,6.1-3.5
			c3.8,0,5.6,2.5,5.6,7.2v11.6h-3.1v-11.2c0-3.4-1.1-4.9-3.4-4.9c-1.4,0-2.9,0.9-4.6,2.8v13.3h-3.1v-11.2c0-3.4-1.1-4.9-3.4-4.9
			c-1.4,0-2.9,0.9-4.6,2.8v13.3H148L148,330.1L148,330.1z"/>
		<path class="st1" d="M184.3,344.2c1.2,0,2.2,1,2.2,2.4c0,1.4-1,2.3-2.2,2.3c-1.2,0-2.3-1-2.3-2.3
			C182,345.2,183.1,344.2,184.3,344.2z"/>
		<path class="st1" d="M228.6,323.7h6.2c7.6,0,11.7,4.4,11.7,12.3c0,7.9-4.1,12.5-11.6,12.5h-6.3V323.7z M234.6,345.9
			c5.8,0,8.7-3.7,8.7-9.9c0-6.2-2.9-9.7-8.7-9.7h-2.8v19.6L234.6,345.9L234.6,345.9z"/>
		<path class="st1" d="M261.8,329.7c4.7,0,7.3,3.4,7.3,8.6c0,0.6,0,1.2-0.1,1.7h-12.4c0.2,4,2.6,6.5,6.1,6.5c1.7,0,3.2-0.6,4.6-1.4
			l1.1,2c-1.6,1-3.5,1.9-6,1.9c-4.9,0-8.8-3.6-8.8-9.6C253.5,333.3,257.6,329.7,261.8,329.7z M266.4,338c0-3.7-1.7-5.8-4.5-5.8
			c-2.6,0-4.9,2.1-5.3,5.8H266.4z"/>
		<path class="st1" d="M277,321.6h3.1V345c0,1,0.4,1.4,0.9,1.4c0.2,0,0.3,0,0.7-0.1l0.4,2.3c-0.4,0.2-1,0.3-1.8,0.3
			c-2.3,0-3.3-1.5-3.3-4.2L277,321.6L277,321.6z"/>
		<path class="st1" d="M289.4,324.4c0-1.2,0.9-2,2.1-2s2.1,0.8,2.1,2c0,1.2-0.9,2-2.1,2S289.4,325.5,289.4,324.4z M290,330.1h3.1
			v18.4H290V330.1z"/>
		<path class="st1" d="M300,330.1h3.2l3.5,10.4c0.5,1.8,1.1,3.7,1.7,5.4h0.1c0.5-1.7,1.1-3.6,1.7-5.4l3.5-10.4h3l-6.5,18.4h-3.6
			L300,330.1z"/>
		<path class="st1" d="M330.4,329.7c4.7,0,7.3,3.4,7.3,8.6c0,0.6,0,1.2-0.1,1.7h-12.4c0.2,4,2.6,6.5,6.1,6.5c1.7,0,3.2-0.6,4.6-1.4
			l1.1,2c-1.6,1-3.5,1.9-6,1.9c-4.9,0-8.8-3.6-8.8-9.6C322.1,333.3,326.2,329.7,330.4,329.7z M335,338c0-3.7-1.7-5.8-4.5-5.8
			c-2.6,0-4.9,2.1-5.3,5.8H335z"/>
		<path class="st1" d="M345.6,330.1h2.6l0.3,3.3h0.1c1.2-2.3,3.1-3.8,5.2-3.8c0.8,0,1.4,0.1,2,0.4l-0.6,2.7c-0.6-0.2-1-0.3-1.8-0.3
			c-1.5,0-3.4,1.1-4.6,4.2v11.8h-3.1V330.1z"/>
		<path class="st1" d="M361.5,344.2c1.2,0,2.2,1,2.2,2.4c0,1.4-1,2.3-2.2,2.3c-1.2,0-2.3-1-2.3-2.3
			C359.3,345.2,360.3,344.2,361.5,344.2z"/>
		<path class="st1" d="M405.8,323.7h6.2c7.6,0,11.7,4.4,11.7,12.3c0,7.9-4.1,12.5-11.6,12.5h-6.4V323.7z M411.8,345.9
			c5.8,0,8.7-3.7,8.7-9.9c0-6.2-2.9-9.7-8.7-9.7H409v19.6L411.8,345.9L411.8,345.9z"/>
		<path class="st1" d="M431.6,324.4c0-1.2,1-2,2.2-2c1.2,0,2.2,0.8,2.2,2c0,1.2-0.9,2-2.2,2C432.5,326.4,431.6,325.5,431.6,324.4z
			 M432.1,330.1h3.1v18.4h-3.1V330.1z"/>
		<path class="st1" d="M444.3,344.3c1.6,1.3,3.2,2.2,5.4,2.2c2.4,0,3.6-1.3,3.6-2.9c0-1.9-2.2-2.7-4.2-3.5c-2.6-0.9-5.5-2.2-5.5-5.3
			c0-2.9,2.3-5.2,6.3-5.2c2.3,0,4.3,0.9,5.7,2.1l-1.5,2c-1.2-1-2.6-1.6-4.2-1.6c-2.3,0-3.4,1.2-3.4,2.6c0,1.7,2,2.4,4.1,3.2
			c2.6,1,5.6,2.1,5.6,5.5c0,3-2.4,5.5-6.7,5.5c-2.6,0-5.1-1.1-6.8-2.5L444.3,344.3z"/>
		<path class="st1" d="M464,330.1h2.6l0.3,3.3h0.1c1.2-2.3,3.1-3.8,5.2-3.8c0.8,0,1.4,0.1,2,0.4l-0.6,2.7c-0.6-0.2-1-0.3-1.8-0.3
			c-1.6,0-3.4,1.1-4.7,4.2v11.8H464V330.1z"/>
		<path class="st1" d="M480.2,330.1h3.1v11.2c0,3.4,1,4.9,3.5,4.9c1.9,0,3.2-1,4.9-3.1v-13h3.1v18.4h-2.6l-0.3-2.9h-0.1
			c-1.7,2-3.5,3.3-6,3.3c-3.9,0-5.6-2.5-5.6-7.2L480.2,330.1L480.2,330.1z"/>
		<path class="st1" d="M507.4,350v6.2h-3.1v-26.1h2.6l0.3,2.1h0.1c1.7-1.4,3.7-2.6,5.9-2.6c4.7,0,7.2,3.7,7.2,9.4
			c0,6.2-3.7,9.9-7.9,9.9c-1.7,0-3.4-0.8-5.1-2.1L507.4,350z M511.9,346.3c3,0,5.3-2.8,5.3-7.3c0-4-1.4-6.8-4.8-6.8
			c-1.6,0-3.1,0.9-4.9,2.5v9.6C509.1,345.8,510.7,346.3,511.9,346.3z"/>
		<path class="st1" d="M529.2,332.7h-2.7v-2.4l2.9-0.2l0.4-5.1h2.6v5.1h4.9v2.5h-4.9v10.2c0,2.3,0.7,3.5,2.8,3.5
			c0.6,0,1.5-0.3,2.1-0.5l0.6,2.4c-1,0.3-2.3,0.7-3.4,0.7c-3.9,0-5.2-2.5-5.2-6.1L529.2,332.7L529.2,332.7z"/>
		<path class="st1" d="M547,344.2c1.2,0,2.2,1,2.2,2.4c0,1.4-1,2.3-2.2,2.3c-1.2,0-2.3-1-2.3-2.3C544.7,345.2,545.7,344.2,547,344.2
			z"/>
	</g>
</g>
</svg>
